<svg xmlns="http://www.w3.org/2000/svg" viewBox="0 0 512 512">
  <defs>
    <linearGradient id="a" x1="256.9" x2="256.9" y1=".14" y2="423.16" gradientTransform="matrix(1 0 0 -1 0 472.93)" gradientUnits="userSpaceOnUse">
      <stop offset="0"/>
      <stop offset="1" stop-color="#fff"/>
    </linearGradient>
  </defs>
  <g style="isolation:isolate">
    <path fill="#52606d" d="M203.6 5.84c40.93-8.71 82.67-9.78 123.11 18.08 39.47 25.59 77.62 80.09 89.12 129.94 12.77 43.4 15.16 85.17 15.4 192.05-1 74.87 0 91.35-42.84 131.76-39.59 31.82-56.52 26.2-83.72 31.56-38.94 4-86.58 6.54-145.34-13.17-97.03-42.76-73.34-80.34-78.46-161.51.22-67.65-.5-167.69 26.36-238 8.58-21.85 24.7-41.38 40.14-56.73 16.54-16.61 34.44-26.93 56.23-33.98z"/>
    <path fill="#9aa5b1" d="M91.64 400.06c.63 50.25 63.8 85.15 114.6 90.81 26.56 2.83 48.27 1.5 67.1-2.44 9.44-2 17.35-3 26.64-5.68 31.84-7.4 46-37.45 65.82-52.79 16.27-12.36 32.29-10.42 40.87-44.68a297 297 0 005.76-30.42c13.39-100.74-6.69-145.18-20-199.33-13.22-52.9-22.14-94.81-76.32-116.53-7.92-3.15-15.55-7.46-23.63-9.28-7.43-1.69-14.66-1.94-22.12-2.52-66.76-4.63-81.19 14.16-115.91 25.17-12.72 6.2-22.84 16-31.6 29.24-8.76 13.24-17.31 28.76-21.65 44.92-4.68 17.09-7.77 37.47-9.21 56.89-.95 12.79 1.72 24.1-.2 53.48-.59 9-2.2 21.55-1.84 30.59.36 9.04.4 23.77.89 34.12 1.97 40.39.26 54.78.8 98.45z"/>
    <path fill="#cbd2d9" d="M100.21 265.21c1.22 5.78 1.84 23.34 2.86 31.4 2.72 20 2.48 25.29-2.48 88.92-8.47 46 86.26 95.21 111.26 86.18 13.4-3.21 21.88-10.18 37.75-13.08 41-7 33.66-47.93 60.5-56.11 16.71-4.27 49.58 21.78 66.25-13.19 51.07-111.55-1.63-157.62-11.73-230.48-7.05-48 13.09-82.56-56.59-100.44-10.14-2.38-19.51-8.07-30-8.59-9.41-.49-18.63 2.57-28.09 3.4-103.17 11.61-90 47.86-132.8 56.24-21.21 5.6-24 63.14-21.28 81 1 6.72 9.23 8.6 6.64 46.72-.51 7.13-3.7 21.32-2.29 28.03z"/>
    <g fill="#fff">
      <path d="M270.32 357.11c.2-10.56-11-15-15.34-23.5l1.42-.78c16.81 8 13.48 5.69 17.76 11 .89 11.65.88 11.59-3.84 13.28zm-46.52-21.32c1.05 3.15 1.91 5.7 3 9-3.76 1.68-4.74 6-10.29 4.55 3.48-4.12 1.25-10.2 7.29-13.55zm86.51 31.69l5.63 5.4c-3.59 1.12-5.68 1.76-8.89 2.73 1.66-8.4.94-7.09 3.26-8.13zm-77.22-52.99l5.31 4.27c.47 3.05.87 5.57 1.48 9.46l-5.73 2.25c-2.66-4.45-4.86-8.14-7.2-12.1zm40.01-47.57l11.26 1.26c.34 2.53.57 4.27.79 5.94l-6.28 6.75zM106.72 398.55l-1.14.39c-1.07-2.45-2.12-4.91-3.39-8 4.87 1.98 5.1 2.26 4.53 7.61zm34.56-119.49c.7 4.75 1.26 8.5 2 13.25-5.41.06-6.58 7.8-12.64 5.7q-1.53-3.27-3-6.51c1.34-.12.92 1.69 1.44-11.92 3.09-3.96 7.38 2.18 12.2-.52z" opacity=".2" style="mix-blend-mode:screen"/>
      <path d="M181.57 298.67a14.57 14.57 0 011.5-21.58c6.77 2.41 8.71 8.86 10.89 15l10.23-7.41c-2.47-3.07-4.7-5.86-6.94-8.68 4.52-13.1 11.73-18.13 21.32-13.59 4.07 5.69-3.51 6.58-3.8 10.43-3 16.64-11.09 26.58-10.26 27.52-4.92 1.2-5.41 5.43-6.38 9.7 1.41 3.41 2.92 7 4.4 10.57l7.18.38c-.5 4.19-.92 7.81-1.4 12-3.77-.87-6.67-1.56-10.27-2.42 2.12 5.67 4.06 10.78 6.06 16 4.9 3.48 10 7.1 15.72 11 .67 5 1.34 9.93 2.15 15.8 6-3.45 11.76-6.76 17.47-10.11 3.15 2.36 5.83 4.36 8.17 6.09 2 5.47-2.45 5.75-5.68 6.79.44 2.26.82 4.2 1.23 6.28-4-.57-7.34-1.08-8.83-1.31-5.45 1.94-9.18 3.23-13.48 4.7l-3.53 4.67c-5.24-3.45-7.73-7-7.23-12.17.16-1.64-1.19-3.53-2-5.79-7.14 3.62-5.67 9.19-5.14 14.88-2.62 1.8-5.36 3.67-8.91 6.07-1.63-3.37-2.74-5.69-4.06-8.45 3.19-3.2 6.22-6.24 10-10.08 0-8.89.56-7.47-1.51-8.59l-4.84 3.72c-6.75-7.47-1.62-13.65-2.55-20.21-2.28-1.32-4.48-2.6-6.9-4-.62-3.14-1.22-6.22-1.93-9.92 3.59.12 6.23.2 9.22.27.24-3.57 5.82-5.79 1.41-10.44-4.21.89-3.06 8.3-8.89 6.22-3.15-6.26-3.22-8.36-.43-12.59 5.87-8.77 5.48-12.6-1.99-20.75zm201.89 166.2c-2.48 1.28-4.8 2.45-7.47 3.75l-2.23-2.56c6.16-4.44 6.52-4.56 9.7-1.19z" opacity=".2" style="mix-blend-mode:screen"/>
      <path d="M87.32 183.55c-1.27 10.62-2.27 21.3-3.08 31.92 1.26-2.18 2.39-4.09 3.76-6.3.81 1.87 1.38 3.18 2.09 4.8 5.15-4.17 9.93.9 14.51 1.84 4.35 4.64 8.13 8.58 13 13.5-.22 6.87-4.65 12.41-8 18.7 2.59 3.78 4.68.88 6.79-.61 1-4.42 1.85-8.53 2.74-12.49 5.25-.3 10.25-.56 15.58-.82 1 2.74 1.78 4.93 2.53 7 3.74 2.25 4.8-.51 6.06-3.59-4.37-7.76-3.93-6.33-3.14-8.16l10.56 3c1.85-1.78 3.67-3.53 6.19-5.93.75 7.93-1.33 14.11-5.39 21.06L142.4 246c-7 7.55-2.18 11.1 7.93 25.11l1.41-.42c-.53 3.91-1.05 7.81-1.64 12.3 1.1 2.14 2.46 4.78 4.06 7.86l3.78-1.37c-1-4.42-1.94-8.37-3.15-13.69 2.18-1.81 4.75-3.95 8-6.67.87-2.63 2.07-6.2 3.55-10.58 3.6-1.8 7.66-3.82 13.29-6.59.49-3.67 1.2-8.95 1.88-13.89 4.9-.9 8.57-1.56 12.4-2.25.5-2.6.88-4.53 1.18-6.1 10.16 7 8.93 6.48 9.51 5.65l7.92 9.16 2.86-1.21 8.57 8.44 8.36.54c6.11-3.81 5.44-9 3.4-15.07 10.4-8.91 7.88-5.69 11.76-14.13l3.21-.46c.35 2.25.7 4.49 1 6.23l10.59 3.87 3.45-7 4.94-.14c.38 3.2.72 6 1.2 10l8.51-5c-.3 4.16-.59 8-.87 11.86 7.94.65 5.12-10.43 13.18-9.12-.41 5.34-.81 10.47-1.24 16l7.15 1.18c.22 1.52.46 3.17.75 5.19l11.59.59c-.16-4-.3-7.31-.49-11.47l8.43-.3c4.14 6.4 6.58 12.41 4.4 19.9l-8.28.58c2.25 4.85 4.29 9.26 6.76 14.64 3.95-2.81 7.33-5.24 10.93-7.84-1.87-8.15 3.25-13.63 7.1-19.56-1.18-2.14-2.23-4-3.47-6.25 5.37.58 5.47.66 15.14 12.3 1-9.83 1.2-8.25-.25-9.57 6.45-6.14 12.65-12.13 17.9-17.27 19.27 8.84 13.46 7.32 24.82 7.1-.09-2.17-.19-4.42-.28-6.27-3.71-1.89-6.92-3.49-11.06-5.51 1.81-2.44 2.88-3.91 4.09-5.57-.38-4.84-.79-9.87-1.31-15.93-8 .42-6.45.89-9.14-1.56-6.2 12.58-5.07 11.18-6.6 10.52-.19-6.63 1-3.69-5.72-13 .83-1.44 0-1.42 5.2.73-1.56-11.15-1.92-8 1.09-14.19-1.25-1.33-2.53-2.67-4.28-4.49-.21-3.13-.45-6.76-.75-11-1.7-1.55-3.71-3.37-6.6-5.94-.41-2.55-1-6-1.58-9.52 5.08-.4 7.07 3.09 9.36 6 2.7 3.47 2.72 3.46 7.31 4 .26-2.51.53-5.16.91-9 3.51-1.22 7.52-2.59 11.51-3.92-2.45-5.87-5.12-12.16-9.1-21-3.31-3.72-7.18 4.56-12 .54-4.85 2.39-1.55 10.8-8.94 12.05-2.39-2.37-5.19-5.1-8.17-7.95-5.75.29-5.92.45-6.19 9.53 1.49.82 3.16 1.74 5.58 3.1-.24 2.28-.51 4.7-.82 7.5-3.71 1.19-7.21 2.33-10.86 3.53-2.37-1.46-4.54-2.8-6.78-4.15l-5.58 1.2c-2.07-2.91-4.1-5.86-6.14-8.69-.3.6-1.46 2.82-5.24 10 2.19 3 3.54 4.9 4.68 6.48.69 4.24-.4 6.8-5.32 7l-6.06-4.48c-.18 4.45-.33 8-.48 11.56-1.8.17-1 1.67-3.52-10.3l-6.88 1.56c4.27 5.29 2.14 9.59-.25 13.68l5.9 5.49c-1.56 3.79-2.79 6.75-3.45 8.34 3.75 6.6 6.71 11.87 10.16 18.05 5.85 3.06 5 2.12 5.2 4.19-2.85.87-5.67 1.86-9.64 3.08l-2.86-8.84-9.3-.8c-.41-1.76-.84-3.68-1.33-5.83l5.07-2.41c-2.38-4.57-4.75-9.09-7.4-14.1l-6.05 5c-1.45 8.34 1 3.76-11.47 20.63-6.84-4.85-13.44-5.91-20.49-1.46l-6.78-4.69c3.74-2.9 6.7-5.18 10-7.74-6.55-6.65-5.09-3.9-6.28-12.73-6.31-1.71-12.13-3.26-19.11-5.09-6.62 5.33-13.64 12.79-24.36 12.08-1.32-.09-2.56-1.2-4.87-2.36 3.08-3.31 5.62-6 8.43-9l-2.76-3-7 3.61c-3.11 11.36-1 7.15-10 19.19-1.49-2.68-2.83-5.12-4.51-8.15-9.09-3.82-6.83-2-10.22-7.79 2.27-4.83 3.58-9.73 6.55-13.21 2.97-3.48 7.72-5.71 12.28-8.81-.66-7.06-6.46-11.5-10.08-17.49l-6 .89c1-3.47 1.8-6.49 2.85-10.19-1.34-4.49-2.27-10-4.6-14.66-1.6-3.18-5.18-5.2-8.34-8.16-3 1.37-5.92 2.76-9.41 4.45l-5-1.24c-1.49 1.53-3 3.07-4.72 4.91-1.47-.36-3.08-.76-5.35-1.3 2.12-2.48 3.64-4.23 5.38-6.21-1.25-5.14-3.76-8.44-9.36-8.41-4.07 0-7.91-.48-11-.64-8.36 5.56-8.34 5.8-7.85 11.77 2.74-1.67 5.42-3.23 8.46-5l6.43 7.54c-1.13 2.3-2.24 4.6-3.49 7.22.28 3 .6 6.24.93 9.54l4.63 2.54c.93 3.91-.93 8.07-10.22 10.8-.82 1.5-1.71 3.12-3 5.61l-7.27-5.67c-1.36.21-3.1.5-5.13.86 1.48-3.51 2.73-6.45 4.77-11.08-3.23 1.19-4.86 1.84-6.54 2.5-.59 2-1.11 3.72-1.95 6.64l-4.62-3.65c4.92-6.43 2.77-2.86 9.26-16.34-7.35-.12-4.79.32-9.63-2.73-.83.38-1.75.82-2.62 1.24q-1.89 8-3.48 16.22L94.1 150c-.43 3.57-.76 6.45-1.09 9.28 1.32 4.79 5.57-.23 8.06 2.75-1.07 1.4-2 2.66-3.36 4.45.55 2 1.16 4.28 2 7.3 3.59-1.54 7.24-3 11.31-4.51 1.68 3.15.88 6.59-.7 10.57-1.45 0-2.79.07-4.46.13-2.13 1.29-4.2 5.38-7 3.27-.15-2.62-.3-5.2-.44-7.77-5.91 2.11-7 4.11-8.31 12zm242 29.76c.45 1.91.88 3.81 1.35 5.84 10.69 3.12 11.93 14.09 5.94 22.19-2.91-1.68-5.89-3.39-8.83-5.06.44-25.18-.06-22.19 1.53-22.97zm-.39-27.18c-5.3-6.88-5.25-7-.14-22.65 3.68 3 7.19 5.83 10.89 8.9-1 2-1.76 3.55-2.68 5.39 1.8 1.63 3.38 3.06 6.2 5.66-5.57 1.02-10.1 1.89-14.28 2.7zm-111.94 14.6c8.74 3.06 7.45 2.18 8.2 4.48-2.44 1.35-4.88 2.7-8.85 4.92.28-4.22.44-6.49.65-9.4zM154.23 141c-.31-9.33-.32-9.28 4.32-12.39 1.9 4.39-.56 7.79-4.32 12.39zm-10.42 32c-.79-3.77-1.25-6-1.85-8.93 6.25 1.61 6.42 2.11 1.85 8.93zm3.58 9.53c-2.88 2.78-4.36 4.23-6.07 5.9-2.81-3-3.76-5.25-.09-8.77zm-40.85 5.05c4.17-1.21 2.13 4.52 4.65 7l3.44.72c5.38-7 3.42-16.86 9.44-23.6l4.45 2.88c-.17 3.2-.31 6-.46 9.08l2.46 2c-.09 3.47-.17 6.67-.25 9.89 3.28.78 5.9 1.41 8.67 2.09 1.48-1.77 2.85-3.38 4.19-5 3.22 0 6.2.1 9.14.17-2.22 8.34-4 15.1-5.76 22.21l-4.19-2.58-4.22 2.92c-4.12-2.68-6.93-4.52-9.77-6.39-2.17 2.63-4 4.91-5.82 7.13-4.56 1.53-8.16 1.16-10.69-3.51-.27-.4-7.51-5.79-7.51-5.79.79-7.06 1.5-13.1 2.23-19.18zm80.98-86.06c4.46 1 7.28 2.59 6.19 8.27-3.13-.64-5.79-1.17-9-1.78 1.22-2.8 1.97-4.55 2.81-6.49zm131.76 295.33a42.22 42.22 0 01-8.64-3.17c-.9-.44-1-2.13-1.74-3.87 7.1-2.5 12.27-1.23 17.12.9-.16 5.4-2.16 7.29-6.74 6.14zM95.56 375.16c.19 2.54-.15 5-3.13 5.12-.12-3.21-.22-5.93-.31-8.64l1.61-.41c.63 1.32 1.75 2.77 1.83 3.93zM82.74 391a17 17 0 01-1.34 1.1q-.18-5.91-.23-12.28c1.95 3.65 2.91 7.46 1.57 11.18zm125.72-76.34l-5.05-2.5c.41-4.1.72-8 1.1-11.76 1.54 1.15 12 7.13 12.74 7.52zM82.35 361.22c2.83 1.88 3.77 4.63 4.18 9l-5.38 7.31v-7.48zm84.9 137.59l.74-.81c2 1 4 2 6 2.91q-3.35-.99-6.74-2.1zm35.33-9.81l5.3-2.18c5.47 2.57 3.2 4.49-.64 12.66-3.79-1.12-5.25-3.48-4.66-10.48zm-19.4-3.32c2.78 1.93 4.66 3.18 6.6 4.46l-1.22 3c-4.88-.43-7.55-2.41-10.65-6zm-38.05-6.38c2.3.55 4.48 1.06 7 1.64-.8 4.26-1.47 7.92-2.12 11.42-4.19-1.79-8.08-3.61-11.78-5.49a18.52 18.52 0 006.9-7.57zm90.86 30.1l-4 1.47c-1.94-.15-3.91-.33-5.88-.51a10.65 10.65 0 00-.64-3.14c.5-.08 2.64-.44 10.31-1.77.02 1.55.1 2.82.21 3.95z" opacity=".2" style="mix-blend-mode:screen"/>
      <path d="M110.99 414.41c.12 1.13-1.52.91 9.59 1 .91.41 2.82 1.28 5.27 2.35 1.83-6.26 4.72-11.34 10.62-13 3.23-5.4 1.65-11.93 1.09-15.56 7.53-25.05 8.78-27.38 14.33-53.47l-1.35-.91 4.7-2.29c.18 6.86.35 12.56.54 18.16 1.07 1.44 2.06 2.78 3.5 4.7-2.72.12-4.81.21-8.07.32 2.42 9.24 4.75 17.86 7.49 27.57l-5.32 9.23c11.2 19 10.4 16.64 9.36 17.31 2.56 2 5.14 3.91 7.53 5.67 7.75.58 14.72 3.45 22.32 7.63-1.7 2.91-3 5.18-4.41 7.5 4.69 2.45 7.89.8 11.56-.36-.21-8.06 10.5-13.06 4.94-23.23 9.6-3.07 12-13.72 23.24-15.12 1.76 2.06 3.33 3.89 6 7-3.83.14-6.62.23-9.57.31 6.15 14.08 3.08 10.11 13 17.72.31 3.26.56 5.74.79 8.06 3.41 1.14 6 2 8.64 2.85.75 2.42 1.44 4.63 1.86 6-4.5 4.57-8.37 8.42-12.43 12.41 6.87 8.35 13.15 15.66 19.48 22.74l-2.89 4c2.26 1.18 4.29 2.22 6.81 3.49-5.51 5.34-10.42 10.4-18.36 13-1.92 2.12-3.06 4.25-5.34 5.61a24.64 24.64 0 00-10.51 12.14c-.18.1-1.3.7-5 2.6l-1.67-.19q-.58-3.72-1.16-8c3.23-1.48 5.64-3.08 3.46-5.08-3.13-1.71-5.22-2.9-7.55-4.24 4.15-3.69 7.77-7 11.46-10.38-3.2-1.06-7-2.35-10.7-3.66-2-12.27 2.29-19.92-7.13-30.78-2.94-3.42-7.38-6.17-11.95-10-4.44 1-10.12 2.64-13.54-4.7-2.91.28-5.35.5-7.73.71l-6 11.63c1.59 2.06 3.43 4.39 5.27 6.68-1.37.34-1-.55-1.87 6.07 6.23 2.52 11.89 4.67 17.3 6.64l4.92-4.15c2 1.47 3.64 2.62 5.25 3.76 0 3.51 0 6.64.08 10.79-3 .2-6.21.39-7.81.48-2.86 3.83-.28 9-8.37 8.37-1.18-1.76-2.39-3.62-3.45-5.28l3-3.51c.74-4.67-2-8.39-6.75-11.92-3.19-.66-6.48-1.36-10.32-2.23l2.74-4.71c-8-.64-6.52 5.14-8.89 8.13-4.13 1.51-2.62-.08-6.66 7.9-2.36-2.8-3.69-4.45-4.7-5.71 0-2.5-.07-4.49-.1-6.75 3.43.29 7.34 1.32 8.83-2.2-1.57-1.54-3.16-3.15-4.08-4.08-11.67-3.77-13.88 2.75-16.46 9.39-7.67-6.82-9.83-14.18-11.83-21.82-1.89-1-3.81-1.95-6.21-3.23-.06-1.55-.11-3-.18-5.05 2.9.95 5.25 1.68 8 2.5-5.41-8.14-15-9.68-18-19.14-1.68 1.19-3 2.13-4.43 3.11-4.47-5.48-2.43-3.67-9.61-7.69l3.43-5.71c4.53 3.05 9.16 5.88 14 8.62zm101.17 94.41c-2.59-.35-5.23-.75-7.88-1.17l2.36-1a39.45 39.45 0 015.52 2.17zm100.58-368.46c5.87 1.57 10.74 2.42 13.32 9.17-3.77-1.93-6.46-3.29-10.73-5.41.88 2.92 1.34 4.2 1.7 5.39-.39 0-1.86 0-6.36.13.83-3.7 1.42-6.36 2.07-9.28zM85.23 338.28c2.94-.61 5.73-1.57 9 2.93v4.17c-1.94.65-3.64 1.22-5.33 1.77-1.45-1-2.89-2-4-2.85l-3.91 1.13c0-3.53-.2-18.18-.22-21.91l.47.15c1.26 4.93 2.55 9.65 3.99 14.61zm2.49-79.03c1.64.29 3.39.6 5.12.89l2.23-3.49c.14 2 .22 3.09.2 2.83 6.85 12 4.93 9.7 9.34 11.7-1.22 5.65-4.32.4-6.43 3.08-1.46 1-3.55 2.52-6.28 4.54-3.77 1.75-.09 12-4.32 13.83-2-2.16-3.57-3.91-5-5.56-.76-6.73 1.61-9.5 3.94-12.37.99-5.23-2.53-11.27 1.2-15.45zm2.69 50.83c-.89-2.88-1.76-5.74-2.94-9.74 7.3 2.38 4.87 8.21 4.41 10.16zM283.57 21.69c-5.64-3.13-3.33-5.47-2.34-7.64 3.31 2.03 1.76 4.39 2.34 7.64zM196.46 121.9c.4-4.62.81-9.1 1.27-14 3.3 1.56 6.2 2.94 9.08 4.32 1.48 6.67-.43 8.52-10.35 9.68zm95.11 15.1c-.39 3.06-.78 6.09-1.25 9.74-5.34-2.28-9.39-4-13.41-5.62.42-.42 1.81-2.11 6.22-7.28 2.61 1 4.96 1.87 8.44 3.16zm-27.5 23.05c-14-7.28-10.64-14.59-9.62-20l-2.76 1c-1.49-3.86-3-7.7-4.9-12.73-4-2.81-11.64.1-17.05-3.15.12-.66.25-1.31.37-2 4.51 0 9 .14 13.58.14 8 0 7.53-11 16.6-10.32.54 1.79 1.06 3.49 1.63 5.37 5.33 1.15 10.17 2.91 11.72 8.15-.88 3.38-1.69 6.54-2.52 9.73 3.84 3.34 5.16 4.54 5.55 4.86-3.69 13.12-3.6 8.86-1.28 19.22-1.86.56-.57 1.41-6.75-6.09-1.65 2.2-3.12 3.99-4.57 5.82zM218.19 2.21v.34l-.86-.17zm16.65 95.3c1.94 1.21 4.1 2.56 6.68 4.19-1.24 2.42-2.06 4-2.79 5.45l3.46 4.49c-6.68-1.77-10.33 5.22-16.49 2.52 3.07-5.82 1.34-12.82 9.14-16.65zM130.64 104c2.55-8.51 7.85-16.6 6.54-25-1.38-9 6-18.55 16.85-22.23 1.52-.53 3.09-.88 5-1.4l3.96 3.45c2.36-3.23 4.36-5.89 6.47-8.61 3.18 5.8 1.95 9.53-4.27 14.52-1.57 1.27-2.56 3.09-4.3 5.32 3.9.81 6.75 1.42 9.81 2.09l6.29 7.32c3 8.46 7.24 10.62 19.81 8.37 1.89-2.76 4-5.76 6.31-9.07-.77-2.53-1.58-5.19-2.48-8.17 2.07-.85 4.18-1.7 7-2.81-1-2.26-2-4.28-2.92-6.35 2.25-1.34 4.46-2.63 6.9-4-1-6.06-1.71-2.9 4-15.55 1.08-1.32 6.7-3.06 2.92-6.82-2.7.23-5.24.45-8.38.74l-4.4-2.55c1.21-1.6 2.19-2.88 3.31-4.31l-3.07-4.27c-1.36 3.07-2.28 5.24-3.54 8.26l3.48 3.66c-1.77 1.22-3.07 2.14-4.46 3.11-7.53-1.94-8.08-7.57-12.91-11.26-7.2-.66-12.46-4.7-19.32-6.46a137.49 137.49 0 00-24.45 20.5c2.1-1 4.16-2 6.29-.59-6.68 11.53-8.26 17.86-21.71 22a3.79 3.79 0 01-1.83-1.84 148.27 148.27 0 00-17.75 28.68c4.64-1.27 8.54.68 12.23 4.24.13 2.39.28 5 .44 7.79 2.35.68 4.66 1.35 6.89 2 .56-.32 1.21-.53 1.29-.76zm-4.53-22c-6.3-.89-7-3.27-3.57-9.14 1.13 2.87 2.13 5.43 3.57 9.14zm70-29.17c3.13.4 3.93 2.09 2.77 4.45a5.25 5.25 0 01-6.23 2.87c-.95-4.05-.94-4.05 3.47-7.33zm36.05-14.04c5.47 5.77 16.27 7.39 21.37 14.33-6.48 5.38-3.6 1.24-17.36 19.73 4.36 3.67 4.38 3.67 12.44 1.94 2.67 7.26.42 4.59 10.53 11.56 3.76-3.4 7.53-6.75 10.84-9.65-.7-3.25-1.17-5.42-1.61-7.43 4.46-5.67 10-2.49 16.16-1.24-.4 2.44-.68 4.18-1 5.9 2 2.43 3.87 4.74 5.65 7-.55 2.72-1.05 5.16-1.63 8 2.34.82 4.39 1.57 6.27 2.25 1.34 2 2.52 3.75 4.29 6.42 3.09 1 6.83 2.12 10.55 3.33.4-1.16-2-2.48 16.65 9 1.37 3.39 2.43 6 3.57 8.93 3.19-1.42 6-2.64 8.23-3.62 1.48-3.59 2.83-6.84 4.29-10.37l4.8-.84c2.12-3-.38-5.82-8.66-9.94-.59-1.54-1.26-3.22-1.92-4.88-2.53-1.6-5-3.14-7.34-4.57-.59-2.55-1.08-4.61-1.63-6.9-2.22-.68-4.28-1.29-6.49-1.94-2.89-4.22-5.82-8.39-8.59-12.24-17.6 1.61-19 1.44-27.36-5.08.14-2 .29-4.24.46-6.61Q282.53 49 280.15 46c-32.39-6.6-26.72-4.67-28.76-7.3-2.16 1.09-4.07 2.06-6.35 3.23l-5.29-2.29c2.88-1.41 5.1-2.47 7.47-3.59-1.84-7.92-.61-5.82-5.09-9.17.23-5.4 1-3.45-4.25-8.51-.13-1.73-.24-3.34-.37-5.08-6 .37-10.48 1.31-13.14 4.91-1.29 1.76-3.9 3.22-6.55 5.4-.28 3.45 5.25 4.89 8.35 8.64 1.66-1.11 3-2 4.43-2.93 2.14 1 1.61-.83 1.56 9.48zm-5.43-17.4l-1.16-.63c2-1.66 4.07-3.28 6.7-5.32.9 4.09.72 4.34-5.54 5.95zm200.18 228.47l1.32 1.66a7 7 0 011.39-1.86c.11 2.56.22 5.21.32 7.9a8 8 0 01-3.03-7.7zm-150-108.71h-.24zm95.27 176.55c-8.35-2.76-10.62-8.12-5.71-17.15 4.45 3.52 10.8-2.14 14.43 4.13-2.99 4.55-5.84 8.79-8.72 13.02z" opacity=".2" style="mix-blend-mode:screen"/>
      <path d="M383.2 284.65c1.88 3.26 3.41 5.92 4.79 8.36l5.61-.2c5.84 7.48 5.94 7.36 13.23 3.17.81-3 1.62-6.05 2.36-8.85 8-2.6 7.65-2.58 8.48 1.4-2.69 2.84-9 4.86-10.23 16.36-.28 2.81-1.71 5.56-2.66 8.38-1.53.39-2.91.72-4.66 1.14-2.78 5-5.7 10.06-9.15 15.85-3.22.83-7.39 1.87-12.2 3 1.36-9.17 1.65-6.08-.9-13.76 2.49-3.6 4.87-7.1 6.65-9.76 11.73-7.41 11.78-5.68-2.34-9.81-5.59-6.66-3.66-3.59-7.48-11.82.92-1.73 1.78-3.34 2.63-4.95zm-10.83 81.48h-5.38c-2.37-5.4 3-8.33 3.42-13.48 4.05 4.19 3.89 8.27 1.96 13.48zm37.79-229.34a290.73 290.73 0 019.72 32.1c-1.55.3-2.68 1.46-3.08 3.67-3.14 2.17-5.7 3.94-8.41 5.79 2.43 7.44 7.15 4.23 9.54 9.24l1.14-4.82c1 2.54 1.82 4.52 2.76 6.91l2-1.39c1.69 10.12 3 21 4 33.17a58.18 58.18 0 00-3.63-4.89c-2.42 1.9-4.62 3.58-7.13 5.46-.79-2-1.19-3-1.38-3.49-3.07-2.06-6.09-4-9.26-5.92-2.38-8.13-7.44-12.26-3.39-14.83 4.07 9.3 3.19 8.15 4.36 7.71.06-1.61.12-3.22.19-5.49 2.25 1 4 1.77 6.29 2.82-1.08-5.41-.81-10.21-3.46-14.83-3.33-.29-6.73 2.93-10.86-2.23-2-4.81-4.32-10.2-6.88-16 4-1.19 7.13-2.12 10.21-3 2.32-.24 5.33 3.83 7.17-1-2.54-2.33-5.1-4.58-7.77-6.85.47-7.33 5.56-2.53 8.41-3.77.69-2 1.47-4.33 2.25-6.62a28 28 0 01-2.79-11.74zm-59.47-40.25c1.32-1.65 2.64-3.27 3.14-3.89 4.31-.73 7.19-1.19 10.26-1.67 3.85 6.44-4.39 8.41-1.8 15.33 1 1.68 2.56 4.39 4.37 7.59 2.82 1.09 6.67 1.8 6.38 6.51-3.85.92-7.62 1.85-11.39 2.81-8.78-11.94-7.26-9.5-7.6-11.19 3.4-10.09 3.75-9.34-3.36-15.49zm-73.43 76.51l-7.9-1.79c-.24-.76-.47-1.52-.71-2.29l5.75-4.13c1.09 3.16 1.74 4.97 2.86 8.21zm114.73-69.23c-1.91-3.32-7.08-5.06-5.67-10.51l4.58 1.38.54 1c1.83 8.87 1.78 7.65.55 8.13zm-95.53-86.08c-4.21-2.85-7.66-5.07-11.59-7.49-1.36 1.35-2.48 2.61-3.64 3.8-.39 0-1.7-.11-5.38-.13-4 2.16-7.23 3.94-10.94 6-3.9-1.63-7.2-3-10.66-4.35-1.38-2.24-2.78-4.46-4.62-7.28-4.07-1.24-9.1-2.74-13.62-4.05-4.82.18-9.1.36-13.87.56.22-1.25.42-2.33.62-3.35a158.6 158.6 0 0173.71 7.31c1.09 2.21 1.95 4 3.11 6.55-.74.59-2.03 1.58-3.12 2.43z" opacity=".2" style="mix-blend-mode:screen"/>
      <path d="M398.81 278.37l-6.44-2.25c.28-3.14.49-5.62.75-8.72l11 1.79c-.6 2.61-1 4.55-1.58 6.83l3.95 1.78c0 2.27.08 4.31.12 6.56-1.36 1.6-2.64 3.09-4.45 5.16-1.3-4.27-2.36-7.85-3.35-11.15zm-123.89 40.47c-6.41-10.53-1.58-13.37 6.34-18.53-.77 1.02 4.82 5.18-6.34 18.53zm6.6-18.72l-1.14-1.61c2.76-9 5.09-16.64 7.4-24.3.4.87.78 1.74 1.17 2.61 3.52-1.91 7-3.82 10.73-5.86l6.82 8.16c4.66 13.63-6.42 19.05-14.06 24.47-3.03-6.59-4.52-7.11-10.92-3.47zm43.24.05c3-1.8 5.74-4.05 9.71-3.39-.39 9.59-7.81 13.09-14.28 18.26.61 13.43-19.92 20.7-21.58 32.45.45 2.92 2.57 12.06 1.19 20.23-2.34 14.72 18 25.24-2.9 34.25l-5.94-.23c.13.4.25.8.38 1.2a795.34 795.34 0 01-12.72 5.09c1.52-17.43.46-14.22 4.58-19.45l7.62-.59c-9.5-16.87-8.76-14.71-7.13-15.35.42-1.86.84-3.72 1.26-5.62l-5.38-4.57c.34-1.9.63-3.58.93-5.24l5.49-1.21c-2.42-8.63 3.92-11.85 8.29-15.68l-2.29-11.11c6.33-3.14 12.16-6.08 17.65-8.89.64-4.86 1.13-9.11 1.68-13.36 1.13-.35 11.84-5.83 13.44-6.79zm-43.5.14l.26-.19zm.26-.19l-.26.19z" opacity=".2" style="mix-blend-mode:screen"/>
      <path d="M305.57 316.72c-6.22 1-7.36-2.6-13.13-13.13h5.95l5.5-4.77c2.71 3 5.16 5.58 7.46 8.13l-5.29.84c.98 2.28.93.74-.49 8.93zm-53.28 171.93c1.55 1.46 2.5 2.35 3.56 3.33-1.52 1.48-2.8 2.69-4.12 3.92-6.5-1.67-1.93-4.85.56-7.25zm127.38-146.4c1.14 3.09 2 5.46 3.07 8.34-1.17 2.16-2.4 4.4-4.12 7.49-2.93-5.23-5.29-9.42-8.46-15 4.19-.34 6.93-.59 9.51-.83zm-23.88 115.01c-13.28.5-21.51-2-22.14-6.61.62-1.27 1.34-2.73 2.4-4.91 5.4.16 10.56.25 15.94.3 1.24 3.65 2.45 7.21 3.8 11.22z" opacity=".2" style="mix-blend-mode:screen"/>
      <path d="M341.15 390.53c9.47 4.69 6 12.75 3.45 23.46 3.23-1.11 5.46-1.9 8-2.8l5.94 4.95c2.18-1.32 4.18-2.55 6-3.7 6.25 2.18 7 4.93 4.3 15 3-1.36 5.41-2.5 9.19-4.36-2.7 3.47-4.62 5.84-6.69 8.36-.46 7.61-.3 4.65-.62 11.36 4.68.23 9.19.4 13.12.52 3.54 5.6-3.58 9.95-4.44 14.85 5.35 1 3.27-.42 9.16 6.71 2.35-.37 4.33-.69 6.62-1.08 1-2.28 1.89-4.37 2.89-6.8 6.91-4.21 8.75-11.66 11.49-18.13 3.68-1.68 6.73-3.14 10.93-5.32-1.64-2.67-2.68-4.37-4.19-6.86-4.68-1-8.86 8.61-14.95 8.5l-6.88-5.43c-4-.3-8.53-.67-13.44-1.13 1.37-3.35 2.44-6 3.59-8.95 12.05-8.67 10.24-7.88 10.41-7 8.61-2.84 7.45-2.32 7.59-3.22 2.17.37 4.31.73 6.82 1.13 2.71-4.16 5.39-8.51 8.07-13.14 1.16-6.79-1.73-10.86-3.56-15.25 1.4-3 2.93-5.5 3.65-8.19.77-2.87 1.43-5.21 3.94-6.05.14 2 .29 4 .44 6.16 2.37-1 4.47-2 6.83-3.15-.16 17.94-.5 13 1.21 22.55l.2-.4c1.09-17.06 1-38.89 1-56.07l-1.76-3.55c-1.1.22-2.06.4-2.72.51-.73-2.84-1.31-5.14-2.12-8.29 1.8-.39 3.21-.72 4.85-1.14.11-2.54.83-3.76 1.68-4.49 0-4.59-.07-9.06-.12-13.38-1.44 2.18-3 4.38-4.54 6.47-2.26 1.16-4.56 2.24-7 3.3-.42 2.91-.79 5.48-1.23 8.44-5.6.72-11.51 1.26-18.23 1.73-.62 4.11 3.31 2.45 4.2 8.13l11.27 6.66c-.83 2.51-1.45 4.31-2 5.92-.71.1-1.08.29-1.33.16-5.44-2.85-11.55 1.94-13.74 12.1-1 4.68-.92 9.45-1.42 14.94-19.49 8-18.27 6.59-18 8-1.66-.4-3.35-.8-5.07-1.23.66-3.14 1.24-5.93 1.92-9.25-7.65.75-4.44 8.25-9.81 10.87-2.84-4.89-5.82-10-9.41-16.16-2.15 3-3.53 4.79-5.13 6.93-3-1.82-5.09-4.09-3.26-9.16 6.26-2.69 15.48-3.1 14.15-13.59-2.89-3.45-5.36-6.4-8.25-9.83 9.23-9.64 7.12-6.14 9.61-15.31l1.33-.51c1.85 3.57 3.68 7.1 5.9 11.42 1.69-2.57 2.67-4.08 3.73-5.73-1.69-3-3.23-5.76-4.78-8.52-1 1.07.88 2.27-11.08-8.66.47-7.37.78-12.71 1.16-19.62-3.83 1.37-6.29 2.23-8.82 3.12-.16 2.72-.29 4.66-.45 7.17l-4.52-.4c-15.46 15.83-11.55 11-13.92 17.69l5.9 5.32c2.8-.57 5.39-1.11 8.94-1.88.24 5.09.45 9.81.7 16.08-2.23 1.18-4.82 2.53-6.16 3.23-7.46-2-9.46-6.49-10-13.2-6.56 2.52-12.66 4.81-19.45 7.28 2.16 6.41 4.08 12.14 5.83 17.38 3.9 2.07 7.46 3.94 11.21 5.91 1 5 2.14 9.83 2.73 14.68.76 6.41 4.08 11.41 9.14 13.94zm83.37-34.27c2.33-.46 3.77.08 3.13 4.6-3.31 1.19-3.43 1.14-3.13-4.6zm-59.63 37.2c1.77-1.77 3.27-3.28 5.07-5.11l7.39 3.39c-1.55 2-2.82 3.64-4.24 5.44l4 3c-3.68 2.9-6.58 5.89-11 3.7-.34-3.18-.77-6.73-1.22-10.42zm-44.66 45.89c.92 2.13 1.37 4.78 3 6.51 1.63 1.73 4.71 2.81 7.11 4.13-10.72 1.01-13.74-2.68-10.11-10.64zm13.51-11.52c.62 2.44 1.13 4.46 1.76 6.93-2.26.83-4.14 1.51-7.57 2.72-.15-3.14-.25-5.15-.37-7.37 2.43-.87 4.1-1.5 6.18-2.28z" opacity=".2" style="mix-blend-mode:screen"/>
    </g>
    <g fill="#67828e">
      <path d="M250.16 408c3.37.74 5.69 1.24 7.85 1.69.74 2.67 1.45 4.81 2 6.85-.59-.11-2.85-.44-9.6-1.52-.08-2.49-.15-4.3-.25-7.02zm-48.67 90.12c4.24 2.32 6.89 6.1 15 5.73 2.11-1.31 4.9-3.05 8.12-5.09l4.92-.13c2.27 1.22 4.08 2.18 6.47 3.4.9-5.25 1.23-5.87 5.37-8.08 2.82 1 5.72 2 8.24 2.91.19 2.17-4.55 4.14 1.32 5.55 3.51-2.18 3.67-6.18 10.13-6.91 3.38 2.2 4.1 3 2.38 4.48-2.91 2.45-4.8 4.75-4 7.51.34 1.26-1.26 2.38-4.71 2.29l-2.74-1.64c-6.43.28-12.22.52-19.6.82l-2.25 1.78c-2.83-.23-5.69-.49-8.59-.8a5.42 5.42 0 00-3.05-.35c-4.77-.54-9.64-1.2-14.61-2a3 3 0 00.21-.66c-7.3-6.41-7.38-6.72-2.61-8.81zM84.45 414.6c.25 2.22.49 4.2.63 5.35 4.92 4.27 9.28 7.62 14.26 11.18 1.25 4.92 2.6 10 4 15 1.9 1.22 3.69 2.34 5.73 3.58 1.05 3.14 2.44 6.22 3 9.18 1 4.93-2.63 8.07-6.7 3.52-1.62-5.75-1.63-5.77-4.84-8.26-.29 1-.52 2-.8 3C89.36 443.76 85.1 430 83.04 414.76z" opacity=".3" style="mix-blend-mode:multiply"/>
      <path d="M396.85 469.82l-.14-1.09c6.81-5.26 4.5-3.09 8.74-9.25a3.37 3.37 0 001-.1 101.9 101.9 0 0012.54-18.47 14 14 0 01-2.69-4.69c-2.43 1.09-4.83 2.14-8.37 3.57l-5.72-5.72c-1.08.29-2.56.68-5.05 1.31-4.52-6.05-5.22-14.78-6.25-24.14-1.55-.29-3.39-.64-5.71-1.1-4.85 12.57-4.57 11.05-3.78 11.29a513.12 513.12 0 01-4.54 5.67c-13.33 3-8.07 1.88-20.43 4.1l-6.23-8.7c-4.67 3.62-4.68 3.64-4.19 9.71-6 9.3-4.68 7.89-6.82 8.29-1-5-2.08-10.09-3.2-15.37-2.76 0-4.81-.08-7.53-.14.09-1.95.17-3.76.22-4.87 2.9-3.11 5.22-5.65 7.68-8.37-1.72-2.13-2.88-3.56-4.46-5.53-4 2.11-7.62 4-11.7 6.08l-6.14-1.63c-5.5.69-8.52 7.41-15.25 4.48-5.43-4 .25-10.69-1.75-16.13-8-.8-5.67 8.14-11.39 8.83-.63-3.18-.65-3.1 4.66-12.37-6.67-4.12-11.14 4.43-17.58 2.57-4.24-.85-9-1.83-14.41-3-.46-3.2 2.8-8.5-5.36-9.64-.44 2.35-.84 4.52-1.35 7.26-1.95 1.09-4.28 2.37-6.48 3.58l-6.81-3.21c-7.07 3.91-6.49 7.05 2.29 12.82 5-1 10.19-2.08 16-3.35 2.75 1.29 6 2.78 8.87 4.12 3.15 8.15 1.37 11-5.54 9.92-.2.45-1.43 2.82-6 11.19 11.69 3.63 8.38 1.92 15.16 7.38 5.3-.58 11.17-1.29 16.7-2 2.45-2 4.56-3.74 7.06-5.84 2.22 2.64 4 4.75 5.88 7 3.16-1.71 5.45-3 8.31-4.56 2.63 1.69 5.11 3.28 7.41 4.74-.76 4.5-1.42 8.25-2.11 12.12-2.65.32-4.72.55-6.7.76-2.94 8-10.12 15-7 22.88 5 .25 9.55.45 14.31.62.39 1.56.76 3 1.26 5 8.15.17 16.46.65 23.55 4.42-3.4 5.32-12.53 5.76-17.76 10.74-.7 1.87-1.76 4.59-2.57 6.61 4.32 2 7.86 3.71 12.11 5.74.94-.1 3-.31 6-.65-1.09.95-2 1.7-3 2.54 25.4-4.53 44.97-16.35 64.26-35.42zM345.1 461c-5.95 4.54-10.76 1.17-16.91 3.35.71-3.58 1.25-6.42 1.84-9.61 5.76-.69 10.45-1.31 15.83-2.09-.28 3.28-.52 5.83-.76 8.35zm20.75-10c-1.7 1.05-3.7 2.27-7.12 4.28-.76-5.13-1.36-9.08-2-13.1 5.83-1.78 9.4 1.7 9.12 8.82zm-1.95 25.56c-.25.08-1.66.55-3.55 1.15-1.11-7.79 2.08-12 8.11-11.59-1.39 3.3-2.79 6.56-4.56 10.46zM251.37 360l-.35.07c-.03-.47.03-.6.35-.07zm-7.6 6.74c-.1-5.05 3.5-5.92 7.25-6.63.04 1.72.53 7.65-7.25 6.63z" opacity=".3" style="mix-blend-mode:multiply"/>
      <path d="M251.25 359.85a.84.84 0 01.31-.06c-.23.3-.17.28-.31.06z" opacity=".3" style="mix-blend-mode:multiply"/>
      <path d="M81.64 398.39c2.65 2.67 3.39-1.14 5.45-.9 1.43 1.3 3.16 2.81 4.84 4.21 5.9-3.45 5.6-8.25-.27-19.22.26-3.19.54-6.43.91-11 2.79-1.36 6.16-3 10.89-5.38 2-3.77 1.47-4.66-5.89-14.57 2.49-4.36 1.88-3.68 8.46-3.63.33-5.85-3.94-4.37-6-8.21.36-9 4.17-15.7 9.39-23.59-.57-2-1.39-5-2.27-8.25l-5.61 1.2c-.72-2.72-1.43-5.42-2-7.73 2.45-4.16 4.66-7.85 6.94-11.62-1.64-9-1.75-5.74.67-15-.55-3.53-4.45-5.42-2.59-10.84 1.43-1.05 3.47-2.54 5.9-4.27 1.73 1.72 3.27 3.23 5 5-1.11 2.68-1.94 4.71-2.92 7.13.93 4.35-.44 10.38 5.71 12.37 1.53-3 3-5.94 4.56-8.9l1.71 1.07c-3.93 10.27-7.57 12.38.61 22 8.82 1.18 5.32-18.69 20.78-8 4.67 3.24 14.38 4.21 18 4.64 3.53-3 7.29-6.67 9.18-12.06 1.48-4.2 4.09-5.75 8.62-5.17 3.14.39 6.41-.36 9.86-.62 2.7 4.84 2.94 9.6 1.09 15.65 1.27 2.57 2.91 5.86 5.35 10.73-.33 5.26-1.16 3 4.16 10.79 6.92 4.31 11.3-4.43 18.08-2.63l-3.07-2.88c0-3.2 0-6.22-.07-9.27-2.92-1.52-5.23-2.73-8.63-4.53l5.45-6.09c2.63 4.15 4.55 7.18 6.7 10.54l8.53-2.19q3.56 5.64 6.74 10.65c4.93-.78 9.24-1.47 13.47-2.16 5.09 8.32 7.35 15.68 1.35 23.92 1.51 7.75 3.12 16 4.89 24.9l-4 5.31c.53 0 1.93 0 5.47-.06.62 2.67 1.17 5 1.85 7.91 2.92.24 5.74.47 8.55.68-.75 1.12-2.6-.05 17.31 9.79-.24-3 .16-4.67-.54-5.6-4.52-6-.59-10 8.38-26 6-1.7 13.16-3.8 20.77-6.11.76 4.45.73 2.94.14 5.78l7 4.11c-.44 2.13-.82 4-1.26 6.07 4.22.17 7.85.31 12.14.44-.67-2.63-1.22-4.83-1.85-7.26q4-4.62 7.87-9.29c7.19-.87 13.94-1.76 20.4-2.69.1-15.07-.48-16.84-8.2-22.36-5.6 4.32 2.38 9.91-2.86 15-7.41-4.59-4.27-3.85-13.5-3.79-1.08-2.83-2-5.29-3.29-8.55-6.07 5.88-11.8 11.33-17.58 16.74l-1.94-1.13 1.71-8.77 5.14-2.95c.43-3.57.83-6.94 1.23-10.33 0-4.42-7.06-5.19-5.93-11.3 7.13.08 10 10.64 19.36 6.69l-6.15-4.29c.65-3.15 1.31-6.36 1.95-9.56 2.58 0 5.18.07 9 .1-2.5-8.07-3.24-15.18 2.85-20.62l-3.81-6c.39-2.53.81-5.32 1.28-8.54-1.62-2.58-3.35-5.34-6.05-9.6-8 13.77-7.19 11.6-6.16 13.51-5.13 1-10.32 2.08-16.77 3.36l-5.52 5.36-4-4.06c5.82-7 12.53-12.91 12-23.43l-7-3.12c-1.78-3.16-3.41-6.06-5.3-9.39-11.59 3-21.71-2-32.77-4.65l4.26 6.12-5.37 8.39 10.09 6.29-16.65 10.62a23.64 23.64 0 00-21.61 8.52c1.37 1.81 2.61 3.46 4.23 5.59-1.13 3.1-2.35 6.45-3.43 9.39-8.82-3.26-17.23-6.41-26.05-9.74.65-2.23 1.32-4.57 2.09-7.2l-10.1-1.27-3.14-5.7c4.17-15.36 4.12-13.07 2.24-14.2q5.57-3.84 11.22-7.7l2 1.11q1.32-7 2.65-14.07c16.38-5.18 24.67-6.06 28.87 7 4.47-1.25 9-2.51 13.94-3.88 3.9-8.53-9.41-15.47-7.57-23.28 5-7.68 9.08-13.86 13.65-20.78-4.06-3.84-7.84-7.41-13-12.22.75-4.42 1.76-10.24 2.89-16.8l-6.87-5.77c-9.15 2.17-17.22 4.19-25.47 6.35.5 2.86 1 5.41 1.73 9.79l-6.37-5.73c-8.29.26-16.24.58-25 1.06-.09 2.68-.17 5.39-.26 8.46l7.36 1.69c2-2.58 3.64-4.78 5.34-7 6.59 0 9 3.39 10.41 15-3.6 9.21-11.66 12.59-20.66 14.15 1.22 7.79.32 9.74-6.17 13.61a5659.69 5659.69 0 01-19-20.77c-.48-3.34-1-6.65-1.39-9.81 1.55-3.46 3.15-7 4.87-10.76l-4.81-6.61c-5.31.56-10 1.07-16.35 1.87-4.7 2-10.93 7.05-18 4.82l5.81 3.49c-.57 3.28-1.15 6.73-1.91 11.25l5.54 1.4c2.35-2 4.21-3.49 6-4.92 8.6 1 12.41 8.11 17.62 14.73-1.45 2.35-2.86 4.65-4.35 7.09-3.16.17-6 .33-9.84.57.4-3 .73-5.4 1.17-8.55l-4.9-3.29c-1.27 2.9-2.22 5.06-3.31 7.58l-5.57 2.23c-2.35 7.45-7.7 9.3-13.86 8.67-1.31-.15-2.51-.09-20.21 4.28-.11-4.37-.18-7.66-.25-10.75-3.33-.43-5.93-.75-8.91-1.1-1.16 2-2.49 4.27-3.47 6-4.69-2.41-5.53-4.5-10-2.35-1.27 13.12-2.18 26.22-2.88 39.12 2 1.82 3.47 3.16 5.45 4.87a47.36 47.36 0 00-1.24 21.58c-1.7 1.87-3 3.39-4.07 4.62-.5-.31-.94-.58-1.37-.86-.73 23.64-.94 46.19-.65 66.47.29 20.28.13 36.92.39 51.6.54 3 1.11 6.11 1.74 9.38-1.63 2.59-1.43 2.05-1.39 2.86zm14.27-185.07c-.81 2.76-1.52 5.23-2.31 8-4.39 2.21-5 1.62-5.56-4 1.73-1.94 3.61-4 5.72-6.13.75.73 1.41 1.4 2.15 2.13zm224.58 70.54l5.46 1.29c.58 2.77 1.08 5.2 1.58 7.62h-6.41c-.23-3.28-.4-5.77-.63-8.91zm-70.37-4c4.54-5.44 8.71-10.45 13.36-16.05l6.94 4 10.43-6.06c1.75 3.47 4.14 6.19 4.36 9 .53 7.08 3.86 12 11.78 15.78-6.33 6.56-11.68 12.05-18.14 18.63-2.44-5.06-4.26-8.82-6.32-13.1l-10.19.94c-3.13 3.34-5.89 6.28-8.65 9.2-1.57-1.05-1.9 1.2 4.69-16.72.61-3.08-4.98-3.05-8.26-5.59zm-56.84-24.53c1.22 3.44 2.44 6.88 4.05 11.39l-6.21 5.28c-5.48-9.8-4.57-14.16 2.16-16.64zm16-55.31c3.5-.66 5.82-1.08 7.33-1.36 1.47-6.89.81-5.89 2.88-6.19l6.93 16.66c-4.18 1-6.85 1.63-10.65 2.56zM83.47 303c.8 2 1.64 4 2.7 6.53-.14.28-.58 1.14-1.15 2.29-1.17-1.39-2.18-2.62-3.59-4.44.93-2.04 1.56-3.44 2.04-4.38zm12.22-25.43c.39 4.54-1.07 5.9-3 6.3-1.63.36-3.28.53-3.72-3.68 2.13-.84 4.15-1.64 6.72-2.62zm75.83-42l-7.23 2.2c-2.38 3-4.12 5.23-6.1 7.76l-10.32-4.64c-.06-.7-.11-1.39-.16-2.09l7.26-5.16c1.71-6.43 3.41-12.72 5.08-18.79 3-.91 5.33-1.58 7.85-2.31 1.33-2.76 2.64-5.47 4.5-9.28 2.35 3.68 6.64 4.9 6.45 10.1-3.8 4.15-11.24 0-13.71 6.83 3-.35 6-.68 10.29-1.15-4.82 8.43-3.8 4.72-3.91 16.56zm10.63-1.4c-3-7.43-1.57-13.31 2.87-18.95 5.24 5.57 4.16 14.13-2.87 18.98zm-44.28 24.48c9.75 3.79 15.93 3.6 22.34-.36 7.45-4.58 12-1.79 12.45 8.34-11.5 8.25-7.42 4.18-14.63 16.28-7.14-5-13.2-9.4-19.12-13.76-.35-3.37-.65-6.41-1.04-10.47zm-23.63-16.94c0-3.31.06-6.12.09-8.47 2.56-5.37 6.21-1.36 9.11-3.12 11.34-6.84 9.76-5.09 23-2-.83 3.47-1.67 7.07-2.5 10.67-1.14.65-.95-.54-.26 7.23-2.14 2.68-4.16 5.22-6.7 8.45-2.26-2.79-4.18-5.2-6.52-8.14l-8 .09c-1.08-1.71-2.12-3.39-3.22-5.15zm-10.56 13.13c-1.09-4-2-7.38-3.29-12.31.42-5.18 1.27-11 6.44-14.2 1.79 2.36 3.49 4.57 5 6.46-.58 4.86-1.08 9.15-1.57 13.44-.88 4.95-3.43 6.99-6.58 6.64zm161.94 251.24c4.55-1.88 8.74-3.68 13.23-5.7 1.55 1.27 2.76 2.25 4.07 3.29l6-.43c3-2 5.73-4 8.87-6.31 3.49 3.46 11.32.55 14.87 2.51-5.8 4.73-9.83 5.37-8 9.79a296.66 296.66 0 01-39.45 2.77c.14-1.87.28-3.91.41-5.92z" opacity=".3" style="mix-blend-mode:multiply"/>
      <path d="M361.48 291c-1.1 2.83-2.06 5.29-3 7.65-7.38 2.88-4.73.89-11.56 9.27l-9.83-4c11-9.48 7.29-4.56 14.2-17.7zm27.02-26.87c-4.59-7.43-10.94-7.5-19.31-5.72-2.83-2.32-6.36-5.19-10.18-8.25 2.12-4.29.09-9.72 5-10.81 2.66 3.36 4.93 6.25 7.14 9.1l5.84-3.45c3.06 1.18 5.85 2.27 9 3.51 1.72 5.44 6.37 9.2 6.3 16.79-1.54-.45-3.24-.3-3.79-1.17zm-10.34 7.35a838.27 838.27 0 01-7.4 4.87c-5.41-5-6-7.66-3-13.43 7.11 5.63 3.36 4.07 18.72 6.55-1.76 3.1-2.81 4.94-4 7-1.92-2.22-3.16-3.65-4.32-4.99zM222.88 481.53h-8.81c-2.61-4.65-2.4-5.41 2.2-7.94 2.34 1.45 4.62 2.85 7.36 4.49-.2.92-.45 2.05-.75 3.45z" opacity=".3" style="mix-blend-mode:multiply"/>
      <path d="M403.4 258.54c4-2.94 3.65-8 4.62-11.9-1.06-2.45-2-4.65-3-6.78.67-2.54 1.22-4.65 1.59-6.08-6.42-11.38-3.78-6.44-10.11-18.88l5.64-3.07c2.07 1.22 3.65 2.17 5.45 3.27 1.87-7 4.77-13-.12-21.11-1.1-.44-2.43-1-3.95-1.53-.93-2.74-1.83-5.35-2.89-8.39l4.77-3.21a209.3 209.3 0 015.33 3.62c1.43-2.34 2.73-4.49 4-6.58-.18-1.63-.36-3.18-.57-5.06l4.88-3.17 1.19.68a298.76 298.76 0 00-17.24-51.46 401.56 401.56 0 00-4.36-7.41h1a244.47 244.47 0 00-33.71-53c-.09.35-.18.7-.28 1 2.06 3 3.67 5.39 5.67 8.46-11 2.4-6.69.46-16.85 6.72h-6.87c-.48 2.12-.84 3.69-1.24 5.42-5.79-3.94-5.47-5.91 1.47-12.82-1.9-4.45-4-9.18-6.18-14L337.75 52c-1.08-1.57-1.87-2.7-3-4.35-7.23 3.53-5.92 3.37-7.5 2.24l3.4-4.67c-1.13-2.16-2.43-4.59-3.73-7 1.35-.57.1-1.14 7.14 3.76.27-1.94.48-3.46.67-4.91q6.18.66 11.62 1.34a162.2 162.2 0 00-19-14.46 12.35 12.35 0 01-8.63 1.17c-2.47-2.67-4.47-4.73-6.07-6.34-15.8-1.24-23.89-6.22-22-12a155.28 155.28 0 00-21.68-4.93c-7.67 1.75-10.41 2.87-16.44 1.86-2.67-1-5.24-2-7.28-2.75 0-.37-.08-.69-.12-1-20.14-.11-34.91 2.89-51.79 9.59.94-.26 1.87-.51 2.81-.75l7.38 4.31c2.36-1.58 4.46-2.94 6.22-4-.39-1.74-.66-2.93-.95-4.2 1.64-.45 3-.83 4.44-1.21 3.39 1.45 6.75 2.86 10.23 4.3 3.35-.28 6.4-.51 9.07-.72 1.8-1.63 3.23-2.89 5-4.44 1.56 1.17 2.62 2 4 3 5.1-.06 10.29-.12 15.68-.16-1.51 1.11-3 2.23-4.61 3.45 2.33 1.66-1.71 1.27 19.46 1.28 1.72.93 3.71 2 5.91 3.27-.7 1.9-1.38 3.78-2.43 6.74l9.44-1.73c2.86.95 6 2 9.9 3.36a681.1 681.1 0 00-10 9.22c-2.82-.57-5.81-1.15-9.5-1.84-3.26 1.82-7.17.95-11.13-1-.84-1.39-1.73-2.82-2.52-4.1-5.18-2.34-5.16-2.32-10.16-2.1 1 5.75 7.71 9.47 14.07 13.68-.42 1.53-.8 2.94-1.33 4.89 2.95.36 5.49.69 6.83.86 5.16-1.5 9.2-2.64 13.11-3.72 2.61 1.12 4.68 2 7.58 3.32-3.25 3.43-6.32 6.72-9.65 10.33 2.26 2.88-1.37.32 12.86 9 1.53 4-2.87 4.95-4.76 6.66-3.89.56-7.09 1-10.31 1.54-.18 1.74-.95.85 5.17 4.74-4.32 3.74-4.42 3.72-11.7-.21-3.17.32-6.34.66-9.65 1-5.07-6.82-11.71-4.52-17.56-2.69-5.05-2.71-9.35-5-14.43-7.58 0-4.48.09-9.31.15-14.2-2.9.26-5.68.52-9.93.94 1-3.15 1.85-5.59 2.67-8l7.16-1.26c3.17 1.12 5.68 2 8.42 3 1.22-1.86 2.23-3.39 3.12-4.73-1.71-2.37-3.29-4.52-4.86-6.64l-4.78-1.38c-2.93-3.38-5.32-6.08-8-9.09-3.62.17-7.19.35-10.74.54-1.14 1.36-2 2.46-3 3.67-2.51.35-5 .71-7 1-2.84-3.63-5.37-6.81-7.8-9.85-4.18.45-8.11.89-12 1.37-1-1.47-1.6-2.46-2.19-3.36.54-1 1-1.83 1.49-2.61-18.22 8.79-29.07 18.05-41.56 31q6.56-4.5 13.19-8.58c.43-4.84 4.39-7.33 9.07-9.22l5.27.33c4.49-2 5.91-2.54 6.64-3.08-.32 3.42-1.4 7.21 2.6 9.65-1 1.7-1.83 3.19-2.42 4.24l4.63 8.09c2.35-2.44 4.5-4.63 7.15-7.25 2.49 2.5 5 5.07 8.69 8.83-3.94 1.09-6.42 1.8-8.78 2.49-1.19 2.27-2.28 4.4-3.33 6.47l5.31 5c-3.18 1.7-5.68 3.07-7.9 4.3-5.1.21-9.91-.22-14.11 2.78 1.9 14 1 10.94 4.19 15.39-2.79 2.47-5.27 4.71-8.14 7.36l2.53 7.13c2.93-3.12 4.76-5 7-7.31l6 5c-.33 3.6 2.39 6.87-1.34 10.22-11.32 1.65-12.73 2.94-14.81 12.45 5 2.88 18.42 1 20.21-3.46l-2.3-4.28c.92-2.19 1.82-4.32 2.87-6.79 3.34-.68 6.71-1.34 10.08-2 3.3 4.7 8.72 4.75 15.34 4.81 11.08-13.67 10.24-12 9.27-12.54 2.39-1.24 4.77-2.47 7.2-3.7 6.92 3.22 5.37 2.22 7.13 4.66 4.26-2.78 8.52-5.5 13.11-8.39 1 3.15 1.52 5 2.28 7.42 9.39-1.29 5.19-1.6 18.73 1.7.41 2.35.82 4.75 1.15 6.69 4.21 5.46 13.27 6.24 14.77 13.31-1.62 3.42-3.07 6.5-5.08 10.76-6.5-3.71-12.65-7.15-18.7-10.46-2.5 1.5-4.39 2.63-7 4.24-2.2-1.36-5.28-2.3-6.6-4.19-5.48-7.87-9.23-9.12-20.4-5.38-3.8 7 4.45 9.83 5.95 15.13l5.38 1c3.32 4.17 6.45 8.16 10.24 13l5.2-.5c-.48-3.08-.85-5.39-1.23-7.78 1.8-2.47 3.53-4.83 5.44-7.42 2.57-.58 5.24-1.16 7.81-1.71 3.61 8.36 5.61 10.73 9 10.72l5.37-3.73 6.23 4.71c-.82 7.43-4.25 13.52 2.47 20 2.42 2.32 2.46 7 3.24 10.69.41 1.9.07 3.9.06 5.95 2.68.74 4.86 1.36 7.17 2 3.66 9.28-3.9 12-9.22 16.67-.21 4.71-7 7.86-3.73 15.17 7-3.44 13.5-6.63 20.57-10.07 6.15 13.75 3.45 10.25 11.62 16.2l-5.6 16c2.69 1.59 4.63 2.75 6.62 3.94.29 2.85.55 5.41.87 8.66 4.63 1.8 9.31 3.63 13.63 5.33l6.83-4.23c3.87 2 7.51 3.9 12 6.28 6.29-12.87 3.2-7.72 11.83-19.7 3.73 4.37 6.87 8.1 10.94 13.05 1.09-8.09-7.36-12.55-3.13-18.65-2.33-4-4.47-7.71-7.18-12.28v-23.76c-1-1.62-2.24-3.52-3.49-5.46.2-4.16.38-8.18.57-12.42 2.62.26 4.55.47 6.1.64 3.76-2.84 1.83-7.08 1.67-10.75 4.45-9.09 2.34-6.68 9.55-11.28-2.28-1.88-3.59-2.95-4.91-4 .15-1.56-.73-1.27 6.16-1.23 1.53 5.06 2.82 9.41 4.22 14.26 15.31 9.17 13 6.31 9.14 36.44l-5.34 2.67c.86 2.75 1.63 5.24 2.46 7.92-6.82 13.39-2.22 31.54-1.42 36.37 1.55 2.68 3.12 5.39 5.06 8.8 4.89-.05 6.84 5.23 8.79 10.77zM194.6 24a13.18 13.18 0 01-2.47 1.86c-6.75 2.83-11.25 1-15-2a7.88 7.88 0 001.36-1.66l5.24 2.22c3.68-1.84 7.19-2.28 10.87-.42zm126.22 68.54c-2.67-2.37-5.35-4.72-8.78-7.67 2.88-3.3 2.87-3.31 8.5.79.39 3.57.86 7.34.28 6.88zm22.32 122.79l5.77 1.27c-.1 4.23-.17 7.48-.27 11.18l-7 6.47c.59-7.25 1.01-12.62 1.5-18.92zm9.85-48.55c-5.66-3.77-6-6.52-1.13-12.81 3.94 5.1 4.13 8.08 1.13 12.81zm-14.56 11.84c1.94 4.33 3.12 7 4.83 10.88-13.83-3.23-7.73-7.19-4.84-10.88zm16.8-80.05c.4 7 .08 5.92 1.33 6.6 1.43 3.16 3.09 6.31 4.22 9.56 1.61 4.63 2.33 9.51 4.28 14.12 4.7 11.26 4.18 13.51-6 15.83-1 .23-.82.14-7.28-2.07-4.19 2.72-8.2 5.33-13.22 8.63-1.22-.26-3.49-.75-5.91-1.24-.17-2.67-.3-4.55-.43-6.38-3.71-3-7.23-3.63-10.87-.61-1.14-1.95-1.89-.23 8.75-13.13-4-4.57-7.84-8.81-11.85-13.19 2.59-1.13 5.68-2.47 8.44-3.65 3.65 1.37 6.65 2.54 9.26 3.56 2.74-3.48 5.14-6.53 8.27-10.49-1.5-2.19-3.58-5.23-6.28-9.06 3.11-3.08 4.05-8.61 10.32-9 2.28.86 4.28 1.63 6.61 2.55l6.91-5.5c1.93 1.93 3.56 3.58 5.45 5.52-.85 2-1.59 3.69-2.33 5.4-1.34-1.41.42-1.69-9.68 2.55zm21.2 4.87c2.86 6.27 5.1 11.37 7.35 16.64a313.62 313.62 0 00-7.27 3c-.53-3.13-1-5.6-1.44-8.33-2.57-1.77-5.33-3.62-8.42-5.64v-9.94l3.78.45 8.46-8.49c1.22 2.75 2.12 4.82 2.9 6.63zM405.16 151c-4.86-1-6-3.09-4.57-8.62 3.64 1.27 4.91 4.01 4.57 8.62zm-302.03-43.17c2.53.93 3.25 3.13 2.4 6.56-2.32 2.24-3.45 1.41-4.51.08.68-2.23 1.37-4.47 2.11-6.64zm72.86 46.22c1.55-1.07 3.07-2.12 4.84-3.32l5.4 4.39c-6 4.48-6 4.45-10.24-1.07z" opacity=".3" style="mix-blend-mode:multiply"/>
      <path d="M209.99 136.39l5.39 2.81c1.67 3.53 2.43 6.87-.74 10.69-3.12-2.92-5.9-5.5-7.82-7.27-4.44-.14-7.55-.21-11.12-.28 1.12-5.21 2-9.4 3.26-15 3.73.68 6.47 1.19 9 1.66.8 3 1.43 5.24 2.03 7.39zM109.51 405.53l-2.3 4.93c-6.87-1.87-5.65-.66-6.91-5.95l4.22-2.85c1.47 1.19 2.92 2.34 4.99 3.87zM297.23 448c-1 2.27-2.66 4.38-6.83 4-1.08-3.68-.09-7 3.25-10.72 4.25 1.64 4.8 4.04 3.58 6.72zm-152.11 1.21c-4.5-.36-5.38-3.52-7.2-6.91l5-2.66c.97 4.25 1.57 6.84 2.2 9.57zm-28.85 5.2c-1.65-6.07-1-7.3 3.66-6.65 1.32 6.38 1.28 6.37-3.66 6.65zm191.4 38.77c-6.08-1-6.44-1.55-2.69-6.43 2.33 2.25 5.28 3.66 2.69 6.43z" opacity=".3" style="mix-blend-mode:multiply"/>
      <path d="M186.32 471.09c2.68.47 5.19.88 8.06 1.34 1.24-1.81 2.5-3.66 3.92-5.76-6.15-5.07-3.48-10.69-5.08-16.3 5.79-5.36 15.39-4.45 23.1-7 3.94-5.8 3.42-7.25-5.82-13.8 1.51-6.74.86-4.31 3-9.93-5.28-5.94-3.57-1.87-8.32-21.75-14.69-5.86-12.71-5.55-12.69-4.22-4.54-.06-9-.16-12.93-.29-3.8-5.34-3.8-5.31-3.64-13.41 6.37-3.64 5.32-3.46 5.76-2 3.66 0 7.36-.12 11.23-.23.83-9-1.45-4 10.36-21.76 1.3-9.88-3.94-16-12.58-21.17-6.36-3.85-11.61-9.62-18.5-15.7l-6 1.12c2.2 3.32 3.75 5.63 5.95 8.88l-4.34.36c.47 17.86.9 15.68-.91 16.21 2.56 3.34 5.14 6.67 8.59 11l-7.3 2.5-10.57 15.3c-1.88-3.19-2.91-4.95-4.07-6.94-5.35 3.46-14.44-.35-16 10 1 1.46 2.37 4.36 4.49 6.47 2.12 2.11 5 3.5 7.82 5.31-1.32 4.26-.44 2.72-3.12 6h-5.06a363.56 363.56 0 01-3.89-4.88c-2.26.17-4.41.32-6.78.47-3.3-6 3.43-8 1.29-13.91-4.11 3-8.34 5.2-12.05-1.4-5.41-2.1-9.11-3.67-12.62-5.21-1.21 6.85-1 7.59 7 12.23 6 20.1 5.16 17.83 6.2 17.82.24 2.4.49 4.79.78 7.52 1.45 1 2.89 2 4.44 3.06l4.13-3.07c1.18 3.14 2.32 6.12 4 10.32.29 2-1.11 5.23 3.32 9.27l2.63-7.22c7 2.07 5.78 6.71 3.5 14.24 3.73 3.13 7.78 6.38 11.14 9 4.53 5.82-1.39 7.76-.78 12.62 2.73-.11 5.09-.22 7.47-.33-.25.84-3.31 0 23.26 10.08.61 1.93 1.08 3.47 1.61 5.16zm-11.66-30.22l5.56-9c2.45 1.92 3.88 3 5.58 4.34-1.18 3.29-2.08 5.76-3.27 9.08-2.65-1.45-4.83-2.67-7.87-4.42zm27.94-26.45c-4.79 5.71-11.17 8.51-20 8.45 2.34-6.64 2.33-5.56 1-6.71-2.17 1.25-4.34 2.49-7.61 4.34-.34-3.76-.57-6.37-.79-8.9 7.48-1.92 14.24-3.75 21.12-5.68 4.67 2.72 7.33 4.77 6.28 8.5zm226.88-108.21c.59-.71 1.08-1.31 1.53-1.87v1.77c-.35.03-.83.08-1.53.1zm-1.95-28.77c0 2.85 2.39 4.42.49 7.82l-1.75-2.77c-1.5.17-2.91.33-4.42.48 1.46-12 .68-8.84 3.42-14.28-1.14-1.56-2-2.79-3.83-5.12 3.6-1.19 6.73-.93 8.59-3.51q.22 6.3.41 13.08c-1.34.23-2.62 1.17-2.91 4.3zM83.39 247.43a3.94 3.94 0 01-1.15 1.48c.16-3.39.34-6.79.52-10.2.23 3.71.46 6.34.63 8.72zm331.27 184.28c-3.93-24.23-3.68-20-2.23-25.79l-8.94-15.78c4.5-8.28 3.5-5.14 4.5-14.25 2.25.23 4.15.4 5.91.55 5.08-4.08 9.59-7.58 13.9-7.92.24 3.19.47 6 .73 9.31a24 24 0 00.94 15.34l.76.2a169.78 169.78 0 01-3.24 25.06l-5.11-.68c-3.89 3.92.02 12.07-7.22 13.96zm12.98-135.52c.05-1.4-.21-.93 2-2.31.38-1.58.79-3.07 1.2-4.39 0 2.25.07 4.54.11 6.87zm-37.22 96.1c-12.15 9.21-20.2 12.09-25.13 9.26 3.79-1.88 6.93-3.5 10.4-5.35l-2.23-2.59c1.34-1.61 2.68-3.24 3.93-4.79-.08-1.54-.14-2.83-.27-5.44 3.85-1.9 7.28-3.69 10.18-5.23l3.75 3.38c3.84-7.13-3.26-5.28-3.75-9.41 2.46-2.53 5.05-5.25 7.8-8.24l4 3.26c-1 2-1.84 3.61-2.06 4 1.51 5.9 2.78 10.85 4.13 16.18-2 1.05-3.41 1.72-4.66 2.33l-1.08 3.63c-2.02-.36-3.6-.69-5.01-.99zM254.51.36c2.7.17 5.41.41 8.11.72-2.56.92-5 .37-8.11-.72zm151.75 277.1l4.54-.2c1.48 3.2 1.91 6 .23 9-4.9-1.48-5.04-1.56-4.77-8.8zm.55 34.77c-7.48 1.81-6.34 1.85-7.8.46q1.74-4.31 3.43-8.6l5.68 2.16c-.51 2.34-.92 4.2-1.31 5.98zm-173.82 15.31c-4.44-1.76-5.95-4.31-3.28-8.46 6.99 2.54 7.39 3.6 3.28 8.46zM352.99 52c-1.55-.32-3.12-1.41-5.11-2.33.8-1.9 1.38-3.25 1.89-4.45 1.14-.13 2.23-.34 3.29-.45 1.67 1.64 3.34 3.28 5 5-.97 2.09-2.4 2.73-5.07 2.23zm71.4 297c-2.57-7.63 2.22-12.1 3.4-17.64 1.32-.5 2.42-.94 3.42-1.36v13.86c-2.04 1.65-4.22 3.29-6.82 5.14zM123.88 95.84c-4.18 1.06-8.31 2.19-12.23 3.36.19-7 .7-13.07 6.26-18.34.11-2 .2-3.83.29-5.53q2.52-4 5.28-7.84a9.09 9.09 0 018 4.11c2.15-.12 4-.21 6-.3l6.72 7.3c4.09-.3 7.69-.51 10.31-.65 2.47 3.45 4.29 6 6.31 8.83-5.46 2.5-12 2.17-15 8.59-2.52 5.33-7 10.47-4.85 16.81-3.86 4-7.51 8-11.53 12.53.92 5.33-.42 3.26 6.2 8.88-4.93 9.92-5.35 10.18-13.62 12l-6.86-5.29c1.46-1.05 1.37 2-2.16-27.83.73-1 2.25-3 4.83-6.2.27 3.29.42 5.12.6 7.25 3.36-1.65 5.45-2.62 7.17-3.42 3.3-7.46 2.95-9.85-1.72-14.26z" opacity=".3" style="mix-blend-mode:multiply"/>
      <path d="M149.24 107.73c.62-4 3.57-5.49 7.63-7-.51 6.6-2.44 8.27-7.63 7zm-25.72 50.99c-1.39 2.05-2.81 4.18-4.33 6.5a337.9 337.9 0 00-6.58 2.24c0-3.15-.06-5.54-.09-7.68 3-3.69 5.79-7 9-10.73.68 3.14 1.29 6.17 2 9.67z" opacity=".3" style="mix-blend-mode:multiply"/>
    </g>
    <path fill="#f5f7fa" d="M345.06 295.06V92.7l-12.07-33.9-13.75 33.9v138l-50.17-50.18-26.63-26.63V264.7l-49.54 50v-222l-13.22-33.41-13.69 33.41v243.67L143.26 326l15.91 35 6.83 6.82 5.08 5.08 71.36 71.37V460l13.16 34.19L269.07 460v-57.5l50.12-49.85 25.87 25.91v-83.51zm-154.35 59.43l51.73-51.73v103.46zm78.36 10.42v-62.45l31.19 31.25zm50.17-50.3l-50.17-50.17v-45.38l50.17 50.18z" opacity=".5" style="mix-blend-mode:screen"/>
    <path fill="#323f4b" d="M340.63 244.66V80.86L328.53 47l-13.72 33.9v138l-50.17-50.18L237.99 142v110.86l-49.54 50v-222l-13.2-33.41-13.68 33.41v243.67l-22.74-10.41 15.91 35 6.83 6.82 5.71 5.71 70.71 70.73v15.81l13.16 34.19 13.38-33.95.09-.24v-57.5l50.12-49.85 25.87 25.91V244.67zm-154.35 98l51.71-51.74v103.46zm78.36 10.42v-62.46l31.19 31.25zm50.17-50.3l-50.17-50.18v-45.38l50.17 50.18z" opacity=".9" style="mix-blend-mode:multiply"/>
    <path fill="#e4e7eb" d="M340.63 80.86l-8.31-23.29-13.47 33.3v138l-76.81-76.8v110.8l-49.54 50v-14.06l-4 4.07v-222l-9.22-23.31-13.68 33.3v243.67l-22.08-10.11 11.22 24.68 6.83 6.82 5.71 5.71 70.71 70.74v6l4 4v15.82l9.22 23.95 13.29-33.72.09-.24v-57.5l50.12-49.85 25.87 25.91V244.67zm-98.59 323.53l-51.73-51.73 3-3-7-7 51.68-51.74V305l4-4zm26.63-41.31V349l-4 4v-62.38l31.19 31.25-3 3 7 7zm50.18-50.3l-12.18-12.17-38-38v-6l-4-4v-45.39l50.17 50.18v6l4 4z" opacity=".1" style="mix-blend-mode:screen"/>
    <g opacity=".5" style="mix-blend-mode:multiply">
      <path fill="#516265" d="M211.7 507.76c6.7 2.52 26.17-.1 33.64 3.06 2.77-2.25 5.54-4.47 3.93-7.77-5.38-10.86 21.87-11.55 29.8-5.5 10.89-3 2.49 7.69 30.53-7.36 5.68 5.6 18.16.71 25.1 4.81 9.6-8.82 9.63-9.2 4.33-11.87 4.26-3.48 8.06-6.29 13.7-3.24 9 5 8.15-10 16.84-11.8 15.34-3 9 9 16.36 8.43 1.78-6.59 6.35-13.84 2.06-20-1.39-2-1.18-4.79 1.22-7.74 4.8-6 3.8-13.28 6.73-13.09 2.65.17 5 3.16 7.82 0 3.11-3.62 1-6.65 0-9.54-4.81-14.65 2.25-7.44 11-21.06 2.46-4 2.05-10.53 7.21-12.13 1.24-.39 1-3.89.21-4-12-1.68-3.51-17.42-6.75-19.21-5.22-2.88-1.79-19.85 7.47-20.68-2.87-20-5.62-18.53-3.52-22 2.71-4.7 1.47-12 5.32-15.57 1.22-1.16 1-2.81 1.27-19 1.68-5.55-2.58-34-5.5-32.67-5.79 3.37-7.19-26.32-3.05-38.86a21.6 21.6 0 013.68 11.17c.4 5 2.57 6.79 4.28 9.32-.38 9.54-.27 19.15 2.77 27.13 2.15-1.27.9-5.52 1.92-7.36q.18 5.08.33 10.46c-1.16 12.69-.67 45.14 0 53.34-1.5 2-1.52-1.27-2.49-.67a18.85 18.85 0 00.47 9.24c4.18 13 .06 32.92.93 39.61 1.83 11.69-5.69 9.51-2.27 17.16 5 10.6-2.52 20.52-.49 25.45a29.56 29.56 0 001.56-3.08c-1.46 8.79-5.47 20.19-9.27 28.38-8.61 18.61-37.35 45.57-55.17 53.73a360.92 360.92 0 01-41.24 10.84c-39.8 7.58-49.47 1.76-52.24 6.25a375.64 375.64 0 01-64.41-4 8.84 8.84 0 015.92-.18z"/>
      <path fill="#5e6c70" d="M407.91 154c.48 20 12.15 17.81 6.75 33.83 0 0 0 .18-.45-.09-.34-2.43-.92-4.39-2.44-5.05-8.21-3.52.24-12.77-10.36-23.37-5.92-5.68-1.89 3.18-7.63 1s-5.82-2-7 5.53c-3.07-2.38-4.19-8.31-9.07-7.52-5.3.87-1-8.48-5.08-10.58-7.77-4-12.61-4.79-10.77 3 1.48 6.33-3.53 6.12-5 .14-7-28.41 3.41-13.91-1.22-26.47-6.54-17.17-8-19-5-22.35 4.88 3.8 12.3 5.49 10.88 13.92-1.45 9 12 2.74 7.46-1.55-4.1-4-11.51-21.47-4.32-24.64 1.77-.92-4.12-21.74-8.11-30l.25.06c1.28.31 3.24.35 3.7 1 4.41 6.35 11.06 9.38 17.23 12.92.76 1.09 1.52 2.19 2.27 3.29.88 5 1.17 6.21 5 7.66a263.93 263.93 0 0117.38 32.85c1.53 5 2.57 10.44 1.1 14.86-1.84 5.61 4.35 18.05 4.43 21.56z"/>
      <path fill="#52606d" d="M356.81 59.77l-.25-.06a28.05 28.05 0 00-1.31-2.52c.41-2.41-4.55-16.14-9.95-11.09-5.15 4.79-15.46 3.52-19.8-2.74-3-4.25-6.81-4.49-9.93-4-.72-2.72-6.09-7.16-16.47-6.72-4.57.26-7.15.09-13.95-7.52-8.61-9.24 18.85 0 22.29-11.87a145.16 145.16 0 0126.07 15c1.1 3.67 2.66 7.4 10.31 8a181.68 181.68 0 0114.26 13.49c6.29 8.71 3.45 1.8 19.66 24-6.17-3.54-12.82-6.57-17.23-12.92-.46-.7-2.42-.74-3.7-1.05z"/>
      <path fill="#3e4c59" d="M426.99 390.32c-3.49-7.62 4.1-5.47 2.27-17.16-.87-6.69 3.25-26.64-.93-39.61a19 19 0 01-.47-9.24c1-.6 1 2.72 2.49.67-.66-8.2-1.15-40.65 0-53.34.56 20.77.84 45 .83 74.27-.06 20.58.16 47.21-3.13 66.78a29.56 29.56 0 01-1.56 3.08c-1.98-4.93 5.42-14.77.5-25.45z"/>
      <path fill="#52606d" d="M425.38 241.41c-1.71-2.53-3.88-4.28-4.28-9.32-.69-9.22-4.66-11.32-5.11-14.09a6.28 6.28 0 001.09-2.86 6 6 0 004 1.69c4.51.1 5.43-4.54 5.43-8.73.75 6.73 1.38 13.84 1.92 21.49-.76 4.11-1.25 8.5-3.05 11.82zm-13.39-86.59c-1.39 1.48.37 4.85 1.86 6.44 2.69 2.89 1.47-1.27 2-2.36a1.82 1.82 0 011.12-1.1 295.72 295.72 0 019 45.46c-.25-1-.55-1.67-.79-1.67-3.51.1-5.06-6-8-8.63-1.36 1.65-.13 4.65-.85 6.64-1.55-2.9-1.58-7.52-2-11.22l.37-.57c5.4-16-6-13.82-6.75-33.83 0-3.49-6.27-15.93-4.43-21.62 1.47-4.42.43-9.91-1.1-14.86a305 305 0 0112.3 32.73 9.57 9.57 0 01-2.73 4.59zm16.16 113.72c-3-7.83-3.19-17.32-2.77-27.13.87 1.69 2.35 4.05 3.78-.81.36 6.47.66 13.3.91 20.58-1.02 1.82.22 6.09-1.92 7.36zM379.99 77q2.57 3.78 5 7.66c-3.81-1.46-4.1-2.66-5-7.66z"/>
      <path fill="#7e99a6" d="M385.99 242.85c.32 19.55 12.87-7.1 21 2.4 5.28 5.86 3.09-13 3.2-13.41-1-13.67 2.85-11.41 5.21-13.29a19 19 0 012 2.37c-3.95 11.26-3 42.34 3.05 38.86 2.92-1.33 7.18 27.12 5.5 32.67v-.71c-3.39 1-1.13-12.11-4.88-8.66-4.8 4.47 7.34 3.81-3 35.18l-.46.09c-3.07-2.26-2.92-7.92-5.4-11.1-8.28 13.05-2.13 19.52-8.41 24.63a3.68 3.68 0 00.55 6.3c16.47 8.84 5.62 23.72 6 28.76.49 8.31-3 18.79-7.75 28.25-3.74-1.14-.4-8.55-4-9.93-1 2.91-.6 7-3.87 8.21-4.52 1.66-8.21-8.44-8.95-17.89.12-5.79 1-11.22 3.82-12.49l-.51-1.09.35-.21c16.3-10.12 7.85-37.91-.85-41.89-11.08-4.66-21.6-4.69-19.12-42.19.31-5.09-1.52-9.76 2.61-12.2 15.55-9.25 2.56-31.29 14.53-32.94l-.13.51c1.87 3.52-.49 6.49-.49 9.77z"/>
      <path fill="#5d7681" d="M334.78 469.53c4.66 5.18 5.23 9.19.62 11.61-7.54 4-15 9.4-24.47 5.58-8.69-3.39-11.88 7.94-16.78-.05-3.51-5.73-5.15.05-6.47 6-.68 3-5.08.05-8.61 4.87 10.89-3 2.49 7.69 30.53-7.36 5.68 5.6 18.16.71 25.1 4.81 9.6-8.82 9.63-9.2 4.33-11.87 4.26-3.48 8.06-6.29 13.7-3.24 9 5 8.15-10 16.84-11.8 15.34-3 9 9 16.36 8.43 1.78-6.59 6.35-13.84 2.06-20-1.39-2-1.18-4.79 1.22-7.74 4.8-6 3.8-13.28 6.73-13.09 2.65.17 5 3.16 7.82 0 3.11-3.62 1-6.65 0-9.54-4.81-14.65 2.25-7.44 11-21.06 2.46-4 2.05-10.53 7.21-12.13 1.24-.39 1-3.89.21-4-12-1.68-3.51-17.42-6.75-19.21-5.22-2.88-1.79-19.85 7.47-20.68-2.87-20-5.62-18.53-3.52-22 2.71-4.7 1.47-12 5.32-15.57 1.24-1.19 1-3.09 1.28-19.74-3.39 1-1.13-12.11-4.88-8.66-4.48 4.18 7.31 4.94-3.08 35.55-3.35-2-3.19-8.1-5.74-11.38-8.28 13.05-2.13 19.52-8.41 24.63a3.68 3.68 0 00.55 6.3c16.47 8.84 5.62 23.72 6 28.76.67 10.64-5.46 24.91-11.39 35l2-.64c-4.42 16.7-15 15.39-13.3 25.71 1.3 7.77-5.7 14.76-6.83 9.4-1.6-7.56-5.55 8.6-17.35 6.63-1.72-.28-7.89-.44-8.36 4-1.2 10.95-15.9 11.11-20.41 22.48zM413.88 333c-1.56-.85-.85-5 .89-4.93 1.55.71 1.3 6.11-.89 4.93z"/>
      <path fill="#6b8892" d="M178.69 498.87c3.06-.42 17.8 6.33 20.28 5.78 3.42-.54 1.4-3.14 3.24-4.56 6.06-4.61 7.47 1.87 11.18 1.4 7-.79 11.5 1.81 15.41 5 2.95-3.72 11-2.73 14.48-5.64a23 23 0 006.12-10l.27.07a4.85 4.85 0 013.58-2.12c6.47.5 12.61.32 17.6-3.26 6.05-3.09 12.57-6.06 10.36-12.87-1.43-4.51 9.53-1.87 13.54-14.7 1.3-4.29 5.2-6.49 10.68-7.19 3.06 4.49 4.29 9.59 6 14 1.46 3.81 6.13 3.53 7.42 6.29.39.83.84.79 2.18.19 11.68-5.32 1.21 4.67 6.82 6.44 2.21.71 3.45-2.32 7-8.14 4.66 5.18 5.23 9.19.62 11.61-7.54 4-15 9.4-24.47 5.58-8.69-3.39-11.88 7.94-16.78-.05-3.51-5.73-5.15.05-6.47 6-.68 3-5.08.05-8.61 4.87-7.93-6.05-35.18-5.36-29.8 5.5 1.62 3.3-1.16 5.52-3.93 7.77-7.47-3.16-26.93-.56-33.64-3.06a8.84 8.84 0 00-5.93.13 248.31 248.31 0 01-28.68-6.11c.25-1.07-.5-2.65 1.53-2.93z"/>
      <path fill="#788b92" d="M296.7 164.58a7.78 7.78 0 011.28.69c-.41-.2-.84-.43-1.28-.69z"/>
      <path fill="#788b92" d="M417.08 215.14c-1.28 8.05-8.13-1.08-6.87 16.7-3.09-2.23-3.69-6.88-5.22-10.71-4-9.93-8.26-1.91-12.36 4.46l-.32-.2a2.51 2.51 0 00-1.13-1.84c-.05.22-.13.4-.19.61-1.17-1.63-1-3.8.05-6.13a6.69 6.69 0 011.24 1.42c2.81-4.47 4.74-9.44 10-10.28 8.69-1.33-.94-19.45-10.16-17.49-7.06 1.69-7-13.3-14-1-3.45-7.6-4-15.72-8.28-23.45-3.7 2.64-8.37 2.54-13.46 1-6.1-1.84-11.11-8.37-18.36-7.06-2.67.5-9-16-14.23-1.3-.92 2.6-3.82 1.26-5.84-.39-1.16-.95-3.55-.2-5.68 1.48-5 .73-9.63 4.65-15.34 1.18-1.34-1.93-4.63-5-4-9.51.57-4.09-6.19-17.61-13.36-12.25-8 6-1.33 10.22 2 13.84 10.41 11.3-5.12 16.26-6.06 14.93-5.33-7.81-10.89-2.87-13.71.9-5.8 7.75-15.25 11-20.76 18.35-7.71-2.34 1-11.78-16.07-10.85-3.76.22-5.66-2.65-7.84-4.54-4.83-4.17.88-8.64 1-13 .21-8.34 9 1.86 11.84-5.77 4.06-10.85 9.93.81 12.46-6.06 3.27-9-.2-21.28-10.68-19.77-4.24 6.05 4.28 13.68-5.12 16.73-3.68 1.19-5.36-.76-5.8-3.64-1.5-9.88-14.47-1.59-8.08-9.85 4.73-5.91 13.71.61 3-22.44-1.26-2.6-14.27-9.6-2.62-21.56 1.82-1.87 1.08-4.68-.6-6.43-3.19-3.33-1.34 2.64-10.66 1.07-.35.43.1.46-.91.07 1.11-9 7.83-12.34 16.88-13.56 20.56-2.67 1.43 13.17 7.56 15 9.52 2.6 11 10.8 15.48 18 6.78-14.66-5.58-12.18 7.26-33.93a14.38 14.38 0 001.7-8.58l2.62.46c.9-8-3.28-15.23-1.88-22.41.64-3.41-5.21-5.27-10.15-3.81-1.51.45-3.78 2.42-4.32 1.39-4-7.5-12.59-1.1-18.34-6.89l.32-.37c6.13.62 14.92-.44 19.33 1 7.69 2.47 16.07-5.34 20.39 2.71 7.68 14.46 24.85-1.23 52.85 9-.46 1.77-1.37 3.57 1.18 5.34 1.18.82 2.55 2 1.71 2.92-4.67 5 2.45 8.35 4.9 12.5 5.52 9.44 5.47-4.26 16.2 3.72 15.46 11.79 14.86 5 19.12 5.72 5.39.9-10.57-17 1.4-13.27 3.61 5.45 11.46 31.36 9.42 32.51-7.19 3.17.22 20.61 4.32 24.64 4.58 4.29-8.91 10.59-7.46 1.55 1.42-8.44-6-10.12-10.88-13.92-3 3.3-1.56 5.18 5 22.35 4.63 12.56-5.8-1.94 1.22 26.47 1.45 6 6.46 6.19 5-.14-1.84-7.74 3-6.93 10.77-3 4.11 2.1-.23 11.45 5.08 10.58 5-.8 5.94 5.17 9.07 7.52 1.19-7.66 1.4-7.63 7-5.53 5.6 2.1 1.71-6.65 7.63-1 10.6 10.6 2.15 19.85 10.36 23.37 3.8 1.67 1.82 11.9 4.53 16.93-2.77 7.71-1.84 13.06.85 15.51z"/>
      <path fill="#616e7c" d="M285.15 25.07c6.88 7.54 9.38 7.78 13.95 7.52 10.38-.44 15.75 4 16.47 6.72-2.14.31-3.94 1-4.83.95-28-10.22-45.17 5.48-52.85-9-4.31-8.06-12.7-.24-20.39-2.71-4.47-1.45-14.27-.31-20.07-1.06a15.67 15.67 0 01-3.09-6.26c-.37-1.37.87-3.91 4.05-2.79 7.71 2.68 14.78.14 21.89-1.64 22.26-5.5 11.25-9.54 12.9-11.5 5.86-2.09 3.7 6.76 13.62 4.89 4.19-.88-1.81-6.55-9.32-9.62a152.87 152.87 0 0150 12.63c-3.49 11.8-30.84 2.54-22.33 11.87z"/>
      <path fill="#5e6c70" d="M353.85 70.46c-4.26-.75-3.66 6.07-19.12-5.72-10.73-8-10.69 5.72-16.2-3.72-2.45-4.15-9.57-7.48-4.9-12.5.84-.91-.53-2.1-1.71-2.92-2.55-1.77-1.64-3.57-1.18-5.34 2.26.05 9.77-4 14.76 3.1 4.34 6.25 14.65 7.53 19.8 2.74 5.4-5.05 10.36 8.68 9.95 11.09-11.97-3.78 3.98 14.21-1.4 13.27z"/>
      <path fill="#616e7c" d="M421.12 216.83c-5.16-.08-8.87-6.27-4.82-17.23.72-2-.51-5 .85-6.64 3 2.6 4.52 8.73 8 8.63.24 0 .54.66.79 1.67.2 1.59.39 3.21.58 4.84.03 4.19-.89 8.8-5.4 8.73z"/>
      <path fill="#919fa0" d="M266.8 10.21c-9.89 2-7.76-7-13.62-4.89-1.65 2 9.35 6-12.9 11.5-7.11 1.78-14.18 4.32-21.89 1.64-3.18-1.12-4.42 1.42-4.05 2.79 4.47 16.23 17 4.38 21.85 13.59.54 1 2.81-.94 4.32-1.39 4.94-1.46 10.79.4 10.15 3.81-1.4 7.18 2.78 14.39 1.88 22.41-43.4-6.89-32.89-23.14-50.52-17.11-3.79 1.37-6.66-.19-9.29-1.83-8.74-5.4-24.74-2.88-30.61 6.27-11.58 18.25-44.27 19.29-58 62.63-2 6-3.57 9.38-4.76 10.57 11-37.23 19.68-50.55 48-80.38A131.41 131.41 0 01179.29 16c2.16-.62 3.18-.47 3.62-1.87 25.42-12.29 47-15.62 74.57-13.58 7.51 3.1 13.51 8.82 9.32 9.66z"/>
      <path fill="#7f9eac" d="M386.5 389.36c1.35 15.21 2.33 15.84 14.48 11.93-4.42 16.7-15 15.39-13.3 25.71 1.3 7.77-5.7 14.76-6.83 9.4-1.6-7.56-5.55 8.6-17.35 6.63-1.72-.28-7.89-.44-8.36 4-1.12 11-15.85 11.17-20.36 22.54-3.5 5.82-4.75 8.85-7 8.14-5.61-1.77 4.86-11.76-6.82-6.44-1.34.6-1.79.64-2.18-.19-1.29-2.76-6-2.48-7.42-6.29-1.68-4.37-2.91-9.47-6-14-5.48.7-9.37 2.9-10.68 7.19-4 12.84-15 10.2-13.54 14.7 2.2 6.81-4.31 9.78-10.36 12.87-2.73-2.64 5.78-5.25.22-6.83-6-1.71-5.43 3.12-6.69 4-4.93-1.15-6.43-11.11-11.13 6.12a4.85 4.85 0 00-3.58 2.12l-.27-.07c1.7-5.5 1-11.45-6.65-11.36-20.87.22-4.87-12.34 9.2-7.54 3.37 1.17 3.67-1.61 4.72-3.18a34.52 34.52 0 00-3.35-1.79c2.26-.2 4.71-.3 7.31-.34-.35.38-.67.76-1.1 1.15 18.31.24 17 12.48 15.4-4.39-1-10.66 9.71.34 21.46-14.82 7.05-9.15 17.75 2.37 14.65-5.28a18.08 18.08 0 01-6-2.11c.81-.13 1.63-.23 2.48-.31 1.24-2.88 0-5.87 1.36-8.91.09-.27.23-.48.33-.75a25.28 25.28 0 002 1.82c5.08-9 9-10.57 24-10.19.67-4.61.31-8.82-2.44-12.46a23.47 23.47 0 01-1.6 2.23c-.72-2.29-.79-4.77 1.17-6.79 6-9 7.76 2.89 9.66 9.11 1.41 4.51 11.71 2.2 10.93-6.54-.64-7.21 1.54-14.3 6.05-22.1 4.36 9.44-.15 21.56 7 28.18 15.56-17 7.3-29.21 12.25-39.81 7-15.42-4.71-15.32-5.57-33.41 16 6.81 7.35 4.51 17 21.82-5.35 2.45-3.6 20.26-3.09 26.24z"/>
      <path fill="#647d89" d="M392.35 226c4.92-7.52 8.71-14.55 12.64-4.88 1.53 3.83 2.13 8.48 5.22 10.71-.12.46 2.08 19.26-3.2 13.41-8.15-9.5-20.67 17.15-21-2.4-.05-3.28 2.36-6.25.49-9.74 0 0 .4-1.66.56-2.07 3.23.97 5.33-2.42 5.29-5.03z"/>
      <path fill="#7e99a6" d="M413.88 333c-1.56-.85-.85-5 .89-4.93 1.55.71 1.3 6.11-.89 4.93z"/>
      <path fill="#92aab2" d="M99.3 452.73c5.82 2.26 12.31 10.74 18.32 4.84 0-.44 27.53 5.83 39.69 27.33 3 5.32 12 6.91 12 4.62-.1-6.72-18.46-7.45-16.18-20.31 1.62-10.17 44.06 8.92 63.42-1.58 1.48-.78 3.54-.3 5.23.36 8.44 3.35 17.71-9.74 34.93.79-1.05 1.57-1.35 4.35-4.72 3.18-14.07-4.8-30.07 7.76-9.2 7.54 12.51-.15 6.66 16.23.53 21.36-3.5 2.91-11.52 1.92-14.48 5.64-3.91-3.19-8.36-5.8-15.41-5-3.71.47-5.13-6-11.18-1.4-1.84 1.42.18 4-3.24 4.56-2.48.55-17.21-6.13-20.28-5.78-2 .33-1.28 1.86-1.6 2.91-25.18-6.37-61.22-23-77.3-44.65a17.34 17.34 0 00-1-3.92 4.5 4.5 0 01.47-.49zm165.08 29.96c1.26-.85.67-5.68 6.69-4 5.56 1.58-2.95 4.19-.22 6.83-5 3.58-11.13 3.75-17.6 3.26 4.74-17.2 6.2-7.24 11.13-6.09z"/>
      <path fill="#7e99a6" d="M349.33 226.18l-.36-.49c1.5-.92 1.47-3.39 2.22-3.37 9.66.35-.44-20.66-1.51-25.86 3.28-5 9.05-8.31 7.69-16 1.11-3.51-1.07-6.76-1.65-10.12-.49.6-.14.42.69-2.11 5.07 1.68 9.76 1.64 13.46-1 4.33 7.74 4.83 15.85 8.28 23.45 7-12.26 7 2.73 14 1 9.22-2 18.85 16.16 10.16 17.49-5.31.84-7.24 5.81-10 10.28-3.16-4.71-5.88-.61-8.86.11-5.62 1.32-2.45 8.11-3.93 11.55-2.58 0-3.65-1.42-4.49-3.16-5.4-11.28-12.62-6.62-12.53 3 .06 6.67-3.75 9.86-8.09 13.91-2.65-7.26-1.3-4.5-5.11-11.24l-.22-.33c.41-1.1.22-3.35.25-7.11z"/>
      <path fill="#94abb3" d="M357.37 180.42c1.36 7.73-4.41 11-7.69 16-3-5.28-1.15-11.42-4.52-18.16-5.16 20.93-9.56 15.11-9.66 10.77-.21-7.11-6.57-11.47-8.41-17.86-2.94-10.24-7.34-4.6-9 3.19a12.09 12.09 0 00-1.14.48c-6.94-4.32-6.92-4.75-4.36-14l-.33.06c2.12-1.68 4.53-2.43 5.68-1.48 2 1.65 4.92 3 5.84.39 5.25-14.69 11.56 1.8 14.23 1.3 7.25-1.31 12.23 5.38 18.36 7.06-.29.88-.61 1.66-.91 2.4-4.08 5.16-3.47 8.34 1.91 9.85z"/>
      <path fill="#92a9b1" d="M296.99 162.1c5.85 3.55 10.65-.65 15.67-1.24-2.74 9.91-2.43 9.72 5.28 14.61-.88 5.22-.45 11.1 2.6 13.54.32 4.3 4.34 9.06-1.47 13.31-4.45-9.36-4.52-20.72-14-27.07-3.51-3.31-3.7-9-8.84-10.95z"/>
      <path fill="#7e99a6" d="M387.04 231c1.66-2 3.55-4.48 4.14-7.49 2.74 1.6.45 8.88-4.14 7.49z"/>
      <path fill="#9dafb0" d="M81.39 339.22c2.43 7.25 3.07 16.44 9.8 21 6.72 4.18-.57 15.54 14.35 23.5 2.25-1.34-.27-6.07 3.29-6.22 2.22 5.67 5.41 10.63 10.84 13 7.11 2.91-2.72 3.23 14.36 16.83 1.38 5.06 4 7.91 8.91 6.81a18.89 18.89 0 018.38 2c-.67-1.15-.29-.18 1.85 1.11 4.95 25.32-11.4-4.95-31.79-4.73-3.93 0-7-2.55-9.55-6.36-9.2-2.07-16.07-7.36-19.24-20 .93 10.1 10.87 32.94-3.92 28.44-3.49-1.14-3.75 1.17-5.29 2.42a232.35 232.35 0 01-2.12-30.9 2.63 2.63 0 012-.73c3.17.06 3.87-4.06 2.4-8.36-1.55-4.82-.8-11-4.59-14.78-.08-22.72-.39-23.25.32-23.03z"/>
      <path fill="#7b8794" d="M85.67 377.06c1.43 4.32.77 8.42-2.4 8.36a2.63 2.63 0 00-2 .73c-.13-7.37-.16-15.29-.18-23.87 3.78 3.72 2.99 9.98 4.58 14.78zm14.12 80.07c-1.25-1.59-2.4-3.16-3.48-4.76a9.37 9.37 0 002.2.39 14.17 14.17 0 011.28 4.37zm-8.5-13.52a78.54 78.54 0 01-4.67-11.85c.74 1.34 1.59 3.73 3 6.86z"/>
      <path fill="#616e7c" d="M80.93 339.67v-3.62c.45 2.55.5 2.95 0 3.62z"/>
      <path fill="#92aab2" d="M86.25 430.5c-.36-1.23-.68-2.48-1-3.73.74 1.47 1.18 2.96 1 3.73z"/>
      <path fill="#94abb3" d="M319.04 202.32c5.81-4.25 1.79-9 1.47-13.31 10.09-1 15.27 6.88 15.05 9.84-.43 5.77-7.49-.86-12.14 5.73-6.75 9.69 14.27.36 12.07 13.25-6.45-1.77-4.71 3.6-3.91 11.19-3.67 8.5-10.07 21.8-18.78 18.45a15.78 15.78 0 01.93-2.46c5.67-3.09 10.79-4.09 7.17-8.71-2-2.59-.7-14.31 3.25-10.19 2.39 2.49 3.41.68 3.47-1.53.28-10.49-12-8.15-15.13-5.05 1.34-4.63.54-11.78-2.64-17.61-2 6.52-3.06 13 1.92 19.1.09-.19 0-.24 0 0v.31c-3.49 5.65-8.35 4-11.85 7.32a6.39 6.39 0 01-2.78-4.15c-3.9-19.69-13.32 1.26-18.45-12.47-2.53-6.69 19.55-5.38 26.27-36.78 9.56 6.35 9.63 17.75 14.08 27.07z"/>
      <path fill="#92a9b1" d="M335.49 217.83c8.48 8 11.84 8.84 13.48 7.86l.36.49c-.19 11.19 2.09 9.27-17.75 2.84-.86-7.44-2.51-12.95 3.91-11.19z"/>
      <path fill="#92aab2" d="M296.39 448.59c-11.72 15.18-22.42 4.16-21.46 14.82 1.6 16.87 2.91 4.63-15.4 4.39 11.11-10.09-4.62-17.05 12.59-18.28 13.62-1 10.48-12.43 12.59-13.37 6.26-2.6 5.27-8.33 7.83-12.67 18.55 9.29 1.59 16.3 18.5 19.83 3.1 7.69-7.59-3.86-14.65 5.28zm38.81-25.73c-15-.38-18.94 1.21-24 10.19-13.82-11.61 11.1-5.91 21.58-22.65 2.74 3.6 3.09 7.85 2.42 12.46z"/>
      <path fill="#7491a1" d="M311.81 221.33c6.23 7.64 2.41 15.75 1.67 23.81.67-.37-.1.07-.68 2.33-11.62 25.13-28.6.08-27.57 15.66.57 9.28 12 20.28-25.64 27.91 4.17-29.61 9.46-1.13 13.41-31.37 3-22.61 25-10 24.1-26 3.23-10.32 10.1-4.61 14.71-12.34z"/>
      <path fill="#a2bac6" d="M327.09 171.21c1.83 6.4 8.2 10.75 8.41 17.86.1 4.34 4.5 10.16 9.66-10.77 3.37 6.74 1.55 12.88 4.52 18.16 1.07 5.2 11.17 26.21 1.51 25.86-1.62-.08.47 10.87-15.7-4.49 2.2-12.89-18.82-3.56-12.07-13.25 4.65-6.59 11.71 0 12.14-5.73.22-3-5-10.8-15.05-9.84-7.85-6.47 1.59-35.3 6.58-17.8zm28.63-.91c.58 3.37 2.76 6.61 1.65 10.12-4.83-1.35-6.51-4.24-1.65-10.12z"/>
      <path fill="#a6c3d2" d="M133.99 407.31a23.13 23.13 0 018.91 6.81c-4.91 1.1-7.49-1.75-8.91-6.81zm9 6.81c4.32-3.73 5.13-3.59 8.38 2a19 19 0 00-8.38-2z"/>
      <path fill="#92aab2" d="M98.73 452.78a10.39 10.39 0 01-2.42-.41 73.36 73.36 0 01-5-8.76l-1.66-5c3.78 4.1 7.48 8.39 9.08 14.17z"/>
      <path fill="#92a9b1" d="M311.81 221.33v-.53c.49-1.13.05-.63.69-1.27 3.15-3.1 15.41-5.44 15.13 5.05-.06 2.21-1.08 4-3.47 1.53-4-4.13-5.27 7.6-3.25 10.19 3.69 4.71-1.72 5.69-7.42 8.84.73-8.06 4.55-16.14-1.68-23.81z"/>
      <path fill="#a2bac6" d="M311.77 221c-5-6.06-3.95-12.58-1.92-19.1 3.67 6.75 3.88 14.83 1.92 19.1z"/>
    </g>
    <path fill="url(#a)" d="M120.37 265.21c1.14 5.78 1.72 23.34 2.67 31.4 2.53 20 2.31 25.29-2.31 88.92-7.9 46 80.42 95.21 103.74 86.18 12.49-3.21 20.39-10.18 35.19-13.08 38.22-7 31.39-47.93 56.41-56.11 15.58-4.27 46.24 21.78 61.78-13.19 47.61-111.55-1.53-157.62-10.94-230.48-6.57-48 12.2-82.56-52.77-100.44-9.45-2.38-18.19-8.07-28-8.59-8.77-.49-17.36 2.57-26.18 3.4-96.2 11.61-84 47.86-123.82 56.24-19.78 5.6-22.42 63.14-19.85 81 1 6.72 8.61 8.6 6.19 46.72-.48 7.13-3.42 21.32-2.11 28.03z" opacity=".5" style="mix-blend-mode:overlay" transform="translate(-.01)"/>
  </g>
</svg>
