<?xml version="1.0" encoding="UTF-8" standalone="no"?>
<svg xmlns="http://www.w3.org/2000/svg" viewBox="0 0 30 50">
    <path id="shirt-base"
          fill="#5e81ac"
          d="M 15.00521,35.772792 C 7.12747,35.772792 0.6669,42.024142 0,50.000002 h 30 c -0.65648,-7.97586 -7.11706,-14.22721 -14.99479,-14.22721 z"
    />
    <path id="neck-base" fill="#fdbe9a"
          d="m 22.7579,37.982322 c -2.2612,-1.41194 -4.91837,-2.2203 -7.74227,-2.2203 -2.83432,0 -5.48107,0.80836 -7.74227,2.2203 0.27093,4.18194 3.63668,7.49084 7.74227,7.49084 4.10559,0.0108 7.47134,-3.29813 7.74227,-7.49084 z"
    />
    <path id="shirt-collar" fill="#f8f9fb"
          d="m 15.00521,46.022852 c 4.28274,0 7.82564,-3.38435 8.24244,-7.7064 -0.32302,-0.22635 -0.66689,-0.43113 -1.01076,-0.62513 -0.12505,4.02025 -3.32407,7.2537 -7.2421,7.2537 -3.91802,0 -7.11705,-3.23345 -7.2421,-7.2537 -0.34387,0.194 -0.67732,0.39878 -1.01077,0.62513 0.43766,4.32205 3.98055,7.7064 8.26329,7.7064 z"
    />
    <path id="neck-shadow" fill="#f2977b"
          d="m 10.14936,39.922402 4.85585,1.98318 4.85586,-1.98318 c 1.05244,-0.43114 1.90691,-1.22872 2.42792,-2.22031 -2.157,-1.22871 -4.63703,-1.94007 -7.27336,-1.94007 -2.63633,0 -5.11636,0.70058 -7.27336,1.94007 0.51059,0.99159 1.35464,1.78917 2.40709,2.22031 z"
    />
    <g id="face-shape"
       transform="matrix(0.10420285,0,0,0.10778185,-56.1445,-16.404398)"
    >
        <path id="hair-back" fill="#001c2d"
              d="m 605,193.7 h 155.6 c 17.7,0 32,14.3 32,32 V 389 c 0,9.9 -8.1,18 -18,18 H 591 c -9.9,0 -18,-8.1 -18,-18 V 225.7 c 0,-17.7 14.3,-32 32,-32 z"
        />
        <g id="ears">
            <g id="ear-left">
                <circle fill="#fdbe9a"
                        r="27" cy="337" cx="584.09998"
                />
                <circle fill="#f28974"
                        r="12.3" cy="337" cx="584.09998"
                />
            </g>
            <g id="ear-right">
                <circle fill="#fdbe9a"
                        r="27" cy="337" cx="781.59998"
                />
                <circle fill="#f28974"
                        r="11.8" cy="337" cx="781.59998"
                />
            </g>
        </g>
        <path id="beard-base" fill="#132b3a"
              d="M 744.7,508 682.8,532.5 620.9,508 c -23.1,-9.1 -38.3,-31.5 -38.3,-56.3 V 305.6 c 0,-9.1 7.4,-16.4 16.4,-16.4 h 167.6 c 9.1,0 16.4,7.4 16.4,16.4 v 146.1 c 0,24.9 -15.2,47.2 -38.3,56.3 z"
        />
        <path id="face-base" fill="#fdbe9a"
              d="m 731,404.5 h -96.3 c -22.8,0 -41.2,-18.5 -41.2,-41.2 v -70.7 c 0,-49.3 40,-89.3 89.3,-89.3 49.3,0 89.3,40 89.3,89.3 v 70.7 c 0.1,22.7 -18.4,41.2 -41.1,41.2 z"
        />
        <path id="hair-crest-base" fill="#132b3a"
              d="M 765.9,259.4 H 650 c -42.5,0 -77,-34.5 -77,-77 v -30.2 h 133.5 c 32.8,0 59.4,26.6 59.4,59.4 z"
        />
        <path id="hair-crest-shadow" fill="#001c2d"
              d="m 573,165.4 v 17 c 0,42.5 34.5,77 77,77 h 84.4 v -4.2 c 0,-7 -5.7,-12.8 -12.8,-12.8 H 650 c -42.5,0 -77,-34.5 -77,-77 z"
        />
        <path id="mustache-base" fill="#132b3a"
              d="m 672,368.8 h 21.6 c 29.7,0 53.7,24 53.7,53.7 v 22.8 h -129 v -22.8 c 0,-29.7 24.1,-53.7 53.7,-53.7 z"
        />
        <path id="beard-shadow" fill="#001c2d"
              d="m 744.7,472 -28.1,11.1 v -4.7 c 0,-5.8 -4.7,-10.5 -10.5,-10.5 h -46.7 c -5.8,0 -10.5,4.7 -10.5,10.5 v 4.7 l -28,-11.1 c -23.1,-9.1 -38.3,-31.5 -38.3,-56.3 v 36 c 0,24.9 15.2,47.2 38.3,56.3 l 61.9,24.5 61.9,-24.5 c 23.1,-9.1 38.3,-31.5 38.3,-56.3 v -36 c 0,24.9 -15.2,47.2 -38.3,56.3 z"
        />
        <g id="nose">
            <path id="nose-base" fill="#f28974"
                  d="m 682.8,384.5 c 7.8,0 14.1,-6.3 14.1,-14.1 v -45.8 c 0,-7.8 -6.3,-14.1 -14.1,-14.1 -7.8,0 -14.1,6.3 -14.1,14.1 v 45.8 c 0,7.8 6.3,14.1 14.1,14.1 z"
            />
            <path id="nose-shadow" fill="#001c2d"
                  d="m 682.8,384.5 c -7.8,0 -14.1,-6.3 -14.1,-14.1 v 9.8 c 0,7.8 6.3,14.1 14.1,14.1 7.8,0 14.1,-6.3 14.1,-14.1 v -9.8 c 0,7.8 -6.3,14.1 -14.1,14.1 z"
            />
        </g>
    </g>
    <g id="face-attributes"
       transform="matrix(0.10420285,0,0,0.10778185,-56.1445,-16.404398)"
    >
        <g id="eyebrow-left">
            <path id="path1029" fill="#f2977b"
                  d="M 625.6,304.8 654.9,292 c 4.6,-2 6.6,-7.3 4.6,-11.9 -2,-4.6 -7.3,-6.6 -11.9,-4.6 l -29.3,12.8 c -4.6,2 -6.6,7.3 -4.6,11.9 2,4.5 7.3,6.6 11.9,4.6 z"
            />
            <path id="path1031" fill="#132b3a"
                  d="m 622,296.5 29.3,-12.8 c 4.6,-2 6.6,-7.3 4.6,-11.9 -2,-4.6 -7.3,-6.6 -11.9,-4.6 L 614.7,280 c -4.6,2 -6.6,7.3 -4.6,11.9 2,4.6 7.3,6.6 11.9,4.6 z"
            />
        </g>
        <g id="eyebrow-right">
            <path id="path1025" fill="#f2977b"
                  d="M 740.1,304.8 710.8,292 c -4.6,-2 -6.6,-7.3 -4.6,-11.9 2,-4.6 7.3,-6.6 11.9,-4.6 l 29.3,12.8 c 4.6,2 6.6,7.3 4.6,11.9 -2.1,4.5 -7.4,6.6 -11.9,4.6 z"
            />
            <path id="path1027" fill="#132b3a"
                  d="m 743.7,296.5 -29.3,-12.8 c -4.6,-2 -6.6,-7.3 -4.6,-11.9 2,-4.6 7.3,-6.6 11.9,-4.6 L 751,280 c 4.6,2 6.6,7.3 4.6,11.9 -2.1,4.6 -7.4,6.6 -11.9,4.6 z"
            />
        </g>
        <g id="eyes">
            <path id="eye-balls" fill="#001c2d"
                  d="m 637.8,329.1 c 4.4,0 8,-3.6 8,-8 v -7 c 0,-4.4 -3.6,-8 -8,-8 -4.4,0 -8,3.6 -8,8 v 7 c 0,4.4 3.6,8 8,8 z m 92,0 c -4.4,0 -8,-3.6 -8,-8 v -7 c 0,-4.4 3.6,-8 8,-8 4.4,0 8,3.6 8,8 v 7 c 0,4.4 -3.6,8 -8,8 z"
            />
        </g>
        <g id="mouth">
            <path id="mouth-hole" fill="#001c2d"
                  d="M 670.6,431.4 H 696 c 5.8,0 10.5,-4.7 10.5,-10.5 0,-5.8 -4.7,-10.5 -10.5,-10.5 h -25.4 c -5.8,0 -10.5,4.7 -10.5,10.5 0,5.8 4.7,10.5 10.5,10.5 z"
            />
            <path id="lips" fill="#fda686"
                  d="m 696,435.4 h -25.4 c -8,0 -14.5,-6.5 -14.5,-14.5 0,-8 6.5,-14.5 14.5,-14.5 H 696 c 8,0 14.5,6.5 14.5,14.5 0,8 -6.5,14.5 -14.5,14.5 z m -25.4,-21 c -3.6,0 -6.5,2.9 -6.5,6.5 0,3.6 2.9,6.5 6.5,6.5 H 696 c 3.6,0 6.5,-2.9 6.5,-6.5 0,-3.6 -2.9,-6.5 -6.5,-6.5 z"
            />
        </g>
    </g>

</svg>
