<?xml version="1.0" standalone="no"?>
<!DOCTYPE svg PUBLIC "-//W3C//DTD SVG 20010904//EN"
 "http://www.w3.org/TR/2001/REC-SVG-20010904/DTD/svg10.dtd">
<svg version="1.0" xmlns="http://www.w3.org/2000/svg"
 width="512.000000pt" height="512.000000pt" viewBox="0 0 512.000000 512.000000"
 preserveAspectRatio="xMidYMid meet">
<metadata>
Created by potrace 1.11, written by Peter Selinger 2001-2013
</metadata>
<g transform="translate(0.000000,512.000000) scale(0.100000,-0.100000)"
fill="#000000" stroke="none">
<path d="M3560 5014 c-24 -60 -51 -128 -62 -151 -10 -23 -18 -45 -18 -48 0 -3
-9 -25 -19 -48 -19 -41 -20 -74 -20 -817 0 -426 0 -791 0 -810 -1 -34 -13 -23
-451 415 l-450 450 0 -651 0 -650 -290 -290 c-160 -159 -291 -290 -293 -291
-1 -1 -1 582 0 1295 l2 1297 -76 197 c-43 109 -80 194 -84 190 -4 -4 -40 -86
-81 -182 l-73 -175 -5 -1442 -5 -1443 -127 59 c-71 33 -128 55 -128 51 0 -5
41 -98 90 -207 l90 -198 490 -490 490 -490 0 -95 c0 -93 1 -98 70 -279 39
-101 74 -190 78 -198 5 -9 36 56 88 184 l79 198 1 344 1 344 293 289 293 290
153 -153 154 -154 0 1681 0 1680 -64 180 c-36 98 -68 190 -73 203 -9 21 -15
11 -53 -85z m-118 -2590 c0 -120 -1 -239 -1 -262 l-1 -44 -290 290 c-159 160
-290 299 -291 309 -1 23 -1 473 0 493 1 8 132 -116 292 -276 l291 -291 0 -219z
m-902 -786 l0 -603 -300 300 c-165 165 -299 304 -297 310 5 13 580 593 590
594 4 1 7 -270 7 -601z m670 247 c0 -7 -346 -355 -352 -355 -2 0 -2 639 1 691
1 15 351 -321 351 -336z"/>
</g>
</svg>
